<?xml version="1.0" standalone="no"?>
<!DOCTYPE svg PUBLIC "-//W3C//DTD SVG 20010904//EN"
 "http://www.w3.org/TR/2001/REC-SVG-20010904/DTD/svg10.dtd">
<svg version="1.0" xmlns="http://www.w3.org/2000/svg"
 width="640.000000pt" height="360.000000pt" viewBox="0 0 640.000000 360.000000"
 preserveAspectRatio="xMidYMid meet">

<g transform="translate(0.000000,360.000000) scale(0.100000,-0.100000)"
fill="#000000" stroke="none">
<path d="M2700 3099 c-19 -5 -55 -11 -79 -14 -47 -5 -71 -19 -71 -41 0 -17
-20 -19 -20 -1 -1 7 -8 4 -18 -8 -11 -13 -28 -19 -49 -18 -18 1 -35 -3 -38 -8
-4 -5 2 -6 12 -3 11 4 6 -6 -14 -25 -18 -18 -33 -36 -33 -41 0 -5 -8 -11 -17
-14 -10 -3 -29 -23 -43 -43 -14 -21 -33 -44 -42 -51 -10 -7 -18 -25 -18 -40 0
-15 -7 -38 -16 -50 -9 -13 -13 -29 -10 -37 2 -7 0 -15 -6 -17 -8 -3 -5 -46 12
-149 25 -149 48 -238 49 -189 1 20 3 22 11 10 5 -8 7 -25 3 -37 -3 -15 -1 -23
7 -23 7 0 10 -7 6 -15 -3 -8 2 -22 11 -31 13 -12 13 -18 4 -24 -8 -4 -10 -16
-7 -28 6 -19 4 -20 -35 -15 -41 6 -42 5 -37 -20 3 -16 1 -24 -5 -20 -19 11 0
-110 26 -167 29 -65 115 -160 144 -160 11 0 28 11 37 25 16 24 16 28 -3 58
-10 18 -22 48 -25 67 -3 19 -8 55 -12 80 -4 25 -17 58 -30 73 -13 16 -24 37
-24 47 0 10 -3 26 -7 35 -5 15 -3 16 15 6 12 -7 22 -22 22 -34 1 -36 26 -70
61 -84 31 -12 31 -13 5 -8 -24 5 -27 3 -22 -10 3 -9 9 -29 12 -43 4 -15 17
-41 30 -59 13 -17 24 -35 24 -39 0 -4 13 -19 29 -34 34 -29 62 -116 34 -106
-8 3 -17 6 -19 6 -3 0 -2 4 1 10 7 11 -24 70 -37 70 -17 0 -15 -19 9 -67 14
-29 30 -50 34 -47 5 3 11 -7 15 -21 3 -14 10 -25 16 -25 5 0 7 -4 4 -9 -3 -5
2 -19 12 -32 27 -35 34 -59 17 -59 -13 0 -44 37 -59 70 -5 13 -2 -6 8 -50 2
-8 11 -46 20 -84 10 -42 24 -75 35 -82 13 -9 17 -21 13 -39 -4 -24 -5 -25 -17
-8 -7 11 -21 43 -30 73 -9 30 -19 62 -22 70 -12 35 -46 -129 -50 -238 -4 -106
-3 -116 20 -155 32 -55 44 -92 26 -82 -7 5 -5 -2 4 -16 12 -16 17 -43 17 -89
-1 -71 -15 -100 -48 -100 -16 0 -24 -9 -32 -39 -7 -25 -31 -59 -73 -102 -52
-52 -65 -71 -69 -105 -3 -22 -1 -48 4 -57 6 -13 4 -22 -8 -35 -17 -16 -17 -16
-11 0 3 10 -1 24 -10 34 -14 14 -15 19 -3 38 12 19 12 20 -3 8 -14 -12 -17 -8
-27 30 -6 24 -15 57 -20 73 -5 17 -12 59 -15 95 -4 36 -13 97 -22 135 -8 39
-17 81 -19 94 -4 18 -8 21 -17 12 -8 -8 -5 -34 11 -103 12 -51 26 -122 31
-158 5 -36 22 -109 38 -162 24 -79 27 -100 18 -118 -9 -17 -9 -31 2 -63 18
-51 10 -84 -22 -99 -14 -6 -25 -17 -25 -24 0 -7 -9 -16 -21 -19 -15 -5 -19
-13 -15 -29 11 -45 -2 -50 -129 -47 -14 1 -35 12 -47 26 -12 14 -30 25 -40 25
-10 0 -18 6 -18 13 0 7 -9 23 -19 34 -11 12 -27 45 -36 75 -20 64 -44 136 -54
163 -5 11 -20 61 -35 110 -15 50 -36 109 -47 133 -27 60 -42 182 -35 287 4 60
3 85 -4 75 -18 -27 -11 -238 10 -334 23 -105 22 -96 11 -96 -5 0 -18 18 -27
40 -10 22 -23 39 -30 36 -6 -2 -28 16 -49 41 -34 41 -40 44 -46 27 -20 -51
-12 -63 126 -187 51 -46 57 -79 7 -39 -97 78 -172 111 -172 77 0 -8 7 -15 16
-15 54 0 259 -198 232 -225 -3 -3 -32 8 -66 25 -33 16 -63 30 -66 30 -3 0 -33
13 -66 29 -45 22 -60 26 -60 15 0 -8 -7 -14 -15 -14 -36 0 -9 -17 62 -38 105
-32 206 -79 221 -102 12 -20 6 -54 -9 -44 -5 3 -9 0 -9 -5 0 -6 5 -11 10 -11
6 0 10 -6 10 -14 0 -8 6 -16 13 -19 10 -4 85 -140 92 -167 1 -3 9 -23 19 -45
10 -22 22 -53 27 -68 8 -28 7 -29 -19 -22 -15 3 -54 17 -87 30 -33 12 -73 25
-90 29 -26 5 -25 3 10 -13 22 -10 66 -31 99 -46 34 -16 60 -34 63 -46 7 -23
21 -24 45 -2 18 16 18 16 12 0 -8 -22 5 -22 22 1 13 16 14 16 8 0 -6 -17 14
-18 329 -18 l335 0 -5 79 c-3 43 -2 100 2 127 7 48 8 48 22 27 l15 -23 29 20
c17 13 45 21 72 22 38 0 44 3 40 19 -3 11 0 19 6 19 7 0 10 -10 7 -25 -5 -29
-1 -31 21 -9 14 14 19 13 46 -13 17 -15 25 -20 18 -11 -7 9 -11 25 -8 35 4 14
5 13 6 -4 0 -13 5 -23 10 -23 5 0 10 -21 10 -48 1 -26 1 -62 2 -79 0 -40 -25
-83 -35 -58 -3 9 1 18 9 21 8 4 15 10 15 16 0 5 -6 6 -12 2 -10 -6 -10 -4 0 7
14 15 16 29 3 29 -12 0 -24 -36 -25 -70 -1 -14 -6 -25 -13 -25 -6 0 -15 -4
-20 -9 -5 -6 -2 -6 6 -1 11 6 13 4 8 -7 -5 -14 10 -16 112 -17 l118 -2 16 78
c19 89 37 215 68 458 32 264 41 376 43 565 1 96 5 184 8 195 4 11 12 83 18
160 8 110 17 159 41 229 25 74 30 103 29 175 -1 47 1 95 5 106 5 18 4 17 -11
-2 -9 -13 -27 -23 -40 -23 -13 0 -24 -4 -24 -10 0 -5 -9 -10 -19 -10 -11 0
-23 5 -26 10 -3 6 1 10 10 10 9 0 41 12 71 26 53 25 84 62 84 99 0 8 4 15 8
15 4 0 4 35 -1 78 -6 42 -10 94 -9 115 0 42 -13 49 -22 12 -8 -32 -62 -37 -62
-6 0 16 12 23 53 33 l53 13 -52 42 c-29 24 -59 43 -66 43 -18 0 -32 -41 -21
-62 17 -32 1 -43 -63 -45 -34 -1 -64 -7 -68 -13 -4 -6 -21 -12 -38 -12 -31 -1
-72 -29 -72 -49 0 -6 -4 -7 -10 -4 -5 3 -10 -1 -10 -9 0 -9 -6 -17 -12 -18
-52 -6 -73 -3 -89 13 -14 14 -34 19 -78 19 -88 0 -99 7 -63 39 37 32 51 81 25
81 -15 0 -16 2 -3 10 13 8 12 10 -2 10 -10 0 -18 4 -18 10 0 12 -53 65 -62 62
-5 -1 -8 5 -8 13 0 9 -6 12 -15 9 -12 -5 -15 0 -13 24 1 17 5 29 9 26 4 -2 10
8 13 22 4 15 10 24 13 20 3 -3 21 5 39 19 18 14 46 25 61 25 16 0 33 4 39 10
5 5 31 11 57 12 26 2 47 6 47 10 0 4 7 4 17 1 9 -4 14 -2 10 3 -4 6 10 9 34 7
30 -2 39 0 34 9 -4 7 -1 6 7 -2 14 -17 52 -15 42 2 -4 6 2 5 15 -1 11 -7 21
-8 21 -2 0 5 7 12 16 15 14 5 15 4 4 -9 -11 -13 -10 -14 2 -10 9 4 18 -1 21
-9 4 -9 15 -16 26 -16 18 0 58 -53 54 -71 -1 -3 4 -26 12 -50 l14 -44 0 66 c1
68 -28 180 -55 210 -8 8 -14 23 -14 31 0 9 -7 21 -15 28 -8 6 -26 32 -40 56
-14 24 -30 44 -35 44 -6 0 -10 7 -10 15 0 8 -15 21 -34 29 -18 8 -42 28 -52
45 -10 17 -22 31 -26 31 -4 0 -8 8 -8 17 0 12 -3 14 -11 6 -11 -11 -62 -5 -54
7 9 14 -19 27 -95 43 -98 21 -167 26 -210 16z m-360 -733 c0 -3 -4 -8 -10 -11
-5 -3 -10 -1 -10 4 0 6 5 11 10 11 6 0 10 -2 10 -4z m119 -92 c1 9 31 -12 31
-23 0 -3 -16 -7 -34 -8 -34 -3 -58 13 -39 26 5 3 13 15 18 26 7 19 8 19 15 -5
5 -14 8 -21 9 -16z m904 -4 c-3 -11 -11 -20 -18 -20 -8 0 -11 8 -8 20 3 11 11
20 18 20 8 0 11 -8 8 -20z m-40 3 c-7 -2 -13 -11 -13 -18 0 -16 -25 -26 -45
-18 -9 3 -21 -2 -28 -11 -11 -15 -26 -21 -58 -25 -10 -2 -33 -55 -30 -71 2 -8
0 -12 -4 -8 -3 3 -8 24 -9 47 -3 34 0 41 15 41 11 0 19 6 19 14 0 8 27 21 68
34 61 18 117 29 85 15z m-343 -93 c0 -22 19 -27 37 -9 7 7 17 8 30 1 10 -6 32
-8 48 -4 28 5 29 4 16 -12 -11 -13 -12 -22 -4 -35 19 -31 -5 -48 -59 -43 -10
1 -18 9 -18 17 0 9 6 12 16 8 21 -8 35 16 23 39 -11 20 -39 14 -39 -8 0 -11
-8 -9 -30 7 -27 20 -37 22 -120 16 -52 -4 -90 -3 -90 2 0 5 -8 12 -17 14 -15
4 -14 5 3 6 11 0 25 -4 31 -10 7 -7 15 -6 26 5 18 18 47 21 47 6 0 -6 15 -9
33 -8 44 2 57 11 27 19 -23 6 -22 7 8 8 26 1 32 -3 32 -19z m-415 -20 c3 -5 1
-10 -4 -10 -6 0 -11 5 -11 10 0 6 2 10 4 10 3 0 8 -4 11 -10z m169 -6 c8 -22
6 -23 -44 -32 -46 -8 -64 -27 -33 -35 10 -2 1 -4 -20 -4 -20 0 -40 -3 -44 -6
-7 -7 17 -11 52 -8 15 2 17 0 6 -7 -9 -7 -10 -12 -2 -16 16 -11 13 -26 -4 -20
-8 4 -15 1 -15 -6 0 -9 -6 -8 -19 4 -10 9 -41 26 -67 37 -42 17 -24 20 20 3
13 -5 16 2 16 40 0 39 3 46 20 46 11 0 20 -4 20 -10 0 -15 30 -12 36 4 3 8 13
12 24 9 10 -3 21 0 24 6 10 16 23 13 30 -5z m412 -81 c-6 -20 -10 -23 -16 -13
-5 7 -3 21 3 31 15 24 21 16 13 -18z m-32 -22 c10 -11 25 -17 37 -14 13 4 19
0 19 -12 0 -12 -5 -15 -16 -11 -14 5 -15 4 -4 -9 7 -8 19 -15 26 -15 8 0 14
-10 14 -25 0 -18 5 -25 20 -25 12 0 17 -5 14 -14 -3 -7 6 -20 20 -29 16 -11
28 -30 32 -54 4 -21 16 -45 28 -54 26 -21 31 -18 16 13 -10 20 -8 20 14 -5 27
-29 35 -54 14 -40 -7 4 -26 8 -41 9 -22 2 -26 0 -18 -10 12 -15 5 -26 -18 -26
-9 0 -46 -12 -84 -26 -41 -16 -74 -23 -85 -18 -15 6 -15 7 3 11 37 8 75 25 75
35 0 6 7 7 16 4 8 -3 12 -2 9 4 -3 6 -1 10 5 10 6 0 13 8 17 18 3 9 13 25 22
36 14 16 12 16 -22 -3 -70 -39 -127 -21 -127 42 0 18 -9 64 -19 104 -10 40
-16 74 -13 77 3 4 -4 6 -16 6 -12 0 -22 5 -22 10 0 6 9 10 19 10 11 0 23 5 26
10 9 15 20 12 39 -9z m-70 -56 c-4 -8 -10 -15 -15 -15 -5 0 -9 7 -9 15 0 8 7
15 15 15 9 0 12 -6 9 -15z m-374 -46 c0 -21 4 -39 9 -39 5 0 11 -13 13 -30 6
-43 -5 -37 -31 17 -18 37 -20 48 -9 54 12 8 4 13 -14 10 -5 0 -8 5 -8 12 0 7
9 13 20 14 17 2 20 -4 20 -38z m360 7 c0 -2 -7 -6 -15 -10 -8 -3 -15 -1 -15 4
0 6 7 10 15 10 8 0 15 -2 15 -4z m-39 -69 c-9 -9 -10 -5 -7 13 6 36 8 37 13
16 3 -10 0 -23 -6 -29z m289 33 c0 -5 -7 -10 -15 -10 -8 0 -15 5 -15 10 0 6 7
10 15 10 8 0 15 -4 15 -10z m111 -50 c-1 -25 -4 -46 -6 -48 -2 -2 -17 10 -33
27 -16 17 -35 31 -41 31 -7 0 -11 6 -9 12 5 14 44 27 73 25 17 -2 20 -8 16
-47z m-424 -5 c0 -8 -6 -15 -13 -15 -7 0 -19 -3 -28 -6 -25 -9 -19 12 7 24 30
15 34 14 34 -3z m-437 -10 c7 -9 8 -15 2 -15 -5 0 -12 7 -16 15 -3 8 -4 15 -2
15 2 0 9 -7 16 -15z m518 -27 c3 -22 -1 -28 -15 -28 -11 0 -24 5 -31 12 -9 9
-12 9 -12 -1 0 -7 -4 -9 -10 -6 -16 10 -12 35 6 35 8 0 12 5 9 11 -5 7 3 9 21
7 23 -2 30 -9 32 -30z m-284 16 c22 -9 20 -24 -3 -24 -28 0 -52 11 -45 21 6
10 26 12 48 3z m106 -9 c-14 -17 -46 -20 -54 -6 -4 5 2 7 13 4 10 -3 22 0 25
6 4 6 12 11 18 11 7 0 6 -6 -2 -15z m-24 -64 c-23 -25 -53 -32 -66 -16 -9 10
-6 17 12 26 13 8 26 13 30 14 3 0 10 3 14 8 4 4 12 3 18 -3 6 -6 4 -16 -8 -29z
m474 -158 c0 -48 4 -85 11 -89 10 -6 9 -19 -5 -89 -6 -28 -32 -76 -42 -78 -5
-1 -7 -8 -6 -17 2 -8 1 -12 -4 -8 -4 4 -13 3 -20 -2 -17 -15 -143 -18 -152 -4
-4 6 -19 14 -33 17 -38 9 -67 39 -70 72 l-4 30 70 -3 c91 -3 141 16 177 67 25
34 27 51 8 51 -3 0 -16 -9 -28 -20 -12 -12 -22 -18 -22 -14 0 3 -6 1 -14 -5
-11 -10 -20 -10 -37 -1 -14 8 -19 8 -15 1 4 -7 -1 -11 -13 -11 -12 0 -21 3
-21 8 0 4 -20 18 -45 31 -25 13 -45 28 -45 32 0 13 7 11 34 -6 20 -13 24 -14
29 -1 4 10 0 12 -14 9 -21 -6 -35 17 -25 43 5 14 9 14 23 3 13 -11 17 -11 20
-1 3 6 14 12 26 12 12 0 44 11 71 25 49 25 49 25 63 5 12 -18 13 -23 1 -37
-11 -14 -11 -16 2 -11 8 2 20 18 25 35 6 16 16 38 24 47 22 27 31 2 31 -91z
m-529 17 c11 -23 14 -42 8 -45 -10 -7 -39 53 -39 81 0 23 10 12 31 -36z m209
-5 c7 -9 10 -18 7 -22 -8 -7 -37 15 -37 28 0 14 16 11 30 -6z m-125 -15 c3 -5
1 -10 -4 -10 -6 0 -11 5 -11 10 0 6 2 10 4 10 3 0 8 -4 11 -10z m5 -280 c-6
-11 -7 -20 -1 -20 5 0 26 -15 47 -34 l39 -35 -28 -10 c-15 -6 -39 -10 -52 -9
-22 2 -25 7 -25 46 0 39 13 82 26 82 2 0 0 -9 -6 -20z m250 -128 l51 -49 -55
8 c-57 7 -96 3 -96 -11 0 -8 -66 -25 -140 -35 -19 -3 -57 -12 -85 -19 -44 -12
-50 -12 -54 2 -2 12 -4 13 -12 1 -6 -11 -9 -8 -9 9 0 14 9 26 25 34 13 6 22
16 18 22 -3 6 -2 8 2 3 5 -4 19 0 32 8 29 20 30 9 1 -16 l-23 -20 23 11 c13 6
26 18 29 26 3 8 13 14 23 14 10 0 37 7 61 16 43 15 137 42 151 43 4 1 30 -21
58 -47z m107 -116 c44 -61 57 -94 42 -112 -9 -11 -16 -11 -39 1 -16 8 -30 20
-33 27 -2 7 -8 9 -13 5 -5 -5 3 -18 19 -29 28 -20 28 -21 22 -102 -9 -128 -14
-149 -29 -137 -15 13 -41 -10 -28 -24 4 -5 2 -6 -3 -3 -6 4 -28 -2 -49 -13
-22 -10 -41 -17 -44 -15 -2 3 -14 -5 -26 -17 -21 -21 -26 -60 -11 -102 5 -16
5 -17 -3 -5 -9 12 -13 9 -21 -13 -6 -16 -11 -32 -11 -36 0 -14 -48 -102 -56
-104 -5 -1 -8 -11 -7 -22 3 -19 2 -19 -8 -2 -6 10 -8 29 -5 43 4 14 -2 41 -15
69 -20 42 -20 48 -7 76 9 17 18 30 22 30 26 -3 45 1 62 13 19 14 19 15 -2 38
-12 13 -25 34 -29 48 -4 13 -15 36 -24 50 -47 71 -57 93 -71 148 -8 31 -16 42
-30 42 -22 0 -40 28 -40 62 0 54 95 109 185 109 30 0 53 4 50 9 -3 4 4 6 15 3
11 -3 20 -1 20 5 0 7 25 9 66 8 l67 -3 34 -47z m-556 -17 c-5 -13 -10 -19 -10
-12 -1 15 10 45 15 40 3 -2 0 -15 -5 -28z m626 -81 c-3 -8 -6 -5 -6 6 -1 11 2
17 5 13 3 -3 4 -12 1 -19z m-631 -10 c-4 -13 -11 -51 -17 -86 -12 -84 -37
-135 -35 -73 1 16 4 27 7 25 3 -2 9 28 12 66 6 74 11 90 29 90 6 0 8 -9 4 -22z
m522 -339 c-2 -6 -8 -10 -13 -10 -5 0 -11 4 -13 10 -2 6 4 11 13 11 9 0 15 -5
13 -11z m-49 -58 c1 -8 -5 -11 -14 -7 -8 3 -15 0 -15 -6 0 -6 -2 -9 -5 -6 -3
2 0 20 7 38 10 30 12 32 19 14 4 -10 8 -25 8 -33z m-79 19 c0 -5 -5 -10 -11
-10 -5 0 -7 5 -4 10 3 6 8 10 11 10 2 0 4 -4 4 -10z m91 -53 c-13 -13 -15 1
-4 30 7 17 8 17 11 -1 2 -10 -1 -23 -7 -29z m-41 -18 c0 -11 -4 -18 -10 -14
-5 3 -7 12 -3 20 7 21 13 19 13 -6z m-50 -79 c0 -5 -4 -10 -10 -10 -5 0 -10 5
-10 10 0 6 5 10 10 10 6 0 10 -4 10 -10z m26 -32 c4 -7 4 -10 -1 -6 -4 4 -13
3 -20 -2 -8 -7 -12 -5 -12 5 0 18 23 20 33 3z m-46 -48 c0 -5 -4 -10 -10 -10
-5 0 -10 5 -10 10 0 6 5 10 10 10 6 0 10 -4 10 -10z m-470 -38 c0 -12 -3 -12
-15 -2 -8 7 -15 13 -15 15 0 1 7 2 15 2 8 0 15 -7 15 -15z m335 8 c-28 -12
-37 -12 -30 0 3 6 16 10 28 9 21 0 21 -1 2 -9z m85 -314 c0 -3 -4 -8 -10 -11
-5 -3 -10 -1 -10 4 0 6 5 11 10 11 6 0 10 -2 10 -4z"/>
<path d="M3198 1590 c-12 -13 -14 -21 -6 -26 6 -4 17 1 25 11 26 36 10 49 -19
15z"/>
<path d="M3176 1044 c-11 -8 -16 -14 -10 -14 13 0 39 18 34 24 -3 2 -14 -2
-24 -10z"/>
<path d="M3035 1025 c-16 -8 -40 -14 -52 -15 -31 0 -29 -20 2 -20 15 0 29 -9
37 -22 20 -37 37 -91 32 -100 -3 -5 7 -13 23 -18 36 -13 57 -59 49 -105 -8
-41 0 -46 14 -10 13 35 2 80 -28 110 -31 31 -12 33 42 4 25 -13 36 -16 33 -7
-2 7 -10 12 -16 10 -7 -1 -10 2 -6 8 3 6 11 8 16 5 5 -4 9 -2 9 4 0 12 -37 24
-50 16 -5 -3 -18 -1 -27 4 -10 6 -14 11 -9 11 5 0 -3 11 -17 24 -32 29 -44 72
-28 98 6 10 10 18 9 17 -2 0 -16 -7 -33 -14z"/>
<path d="M3110 935 c7 -9 15 -13 17 -11 7 7 -7 26 -19 26 -6 0 -6 -6 2 -15z"/>
<path d="M3207 873 c-10 -9 -9 -23 1 -23 5 0 9 7 9 15 0 17 -1 18 -10 8z"/>
<path d="M3195 801 c-3 -5 -1 -12 5 -16 5 -3 10 1 10 9 0 18 -6 21 -15 7z"/>
<path d="M3498 2315 c-8 -9 3 -55 14 -55 6 0 7 -8 3 -17 -11 -28 -13 -63 -4
-63 14 0 22 48 15 95 -7 42 -15 53 -28 40z"/>
<path d="M3497 2133 c-4 -3 -7 -11 -7 -17 0 -6 5 -5 12 2 6 6 9 14 7 17 -3 3
-9 2 -12 -2z"/>
<path d="M2465 1504 c-16 -21 -29 -45 -30 -53 0 -9 -4 -22 -9 -29 -4 -6 -3
-12 2 -12 9 0 75 121 68 127 -2 2 -16 -13 -31 -33z"/>
<path d="M2380 1469 c-12 -9 -11 -10 5 -5 20 6 20 6 1 -9 -11 -8 -23 -15 -28
-15 -4 0 -15 -15 -24 -32 -28 -55 -49 -77 -64 -68 -11 7 -12 18 -3 54 l10 45
-36 -19 c-83 -44 -136 -97 -124 -126 2 -7 24 -18 49 -25 24 -7 44 -17 44 -21
0 -4 6 -8 14 -8 8 0 18 -9 21 -20 3 -11 10 -20 15 -20 4 0 10 -10 13 -22 4
-15 0 -26 -13 -35 -26 -18 -25 -33 0 -33 11 0 20 4 20 9 0 7 64 51 74 51 2 0
9 -14 16 -30 12 -28 14 -29 30 -15 9 8 21 15 26 15 5 0 10 19 10 43 1 23 5 56
9 72 l8 30 -27 -29 c-32 -33 -49 -73 -39 -89 4 -7 -1 -6 -11 2 -13 11 -14 16
-4 22 10 6 8 12 -7 23 -11 9 -26 16 -32 16 -7 0 -13 2 -13 4 0 4 30 75 57 136
l16 35 7 -30 c7 -28 8 -28 5 6 -1 19 3 50 11 67 12 29 11 32 -4 32 -9 0 -24
-5 -32 -11z"/>
<path d="M2382 1310 c0 -19 2 -27 5 -17 2 9 2 25 0 35 -3 9 -5 1 -5 -18z"/>
<path d="M3640 1290 c-19 -11 -30 -19 -25 -19 6 0 26 8 45 19 19 11 31 19 25
19 -5 0 -26 -8 -45 -19z"/>
<path d="M4372 1260 c0 -14 2 -19 5 -12 2 6 2 18 0 25 -3 6 -5 1 -5 -13z"/>
<path d="M4355 1150 c-4 -34 -5 -63 -2 -66 2 -3 7 23 11 57 4 33 5 63 3 66 -3
2 -8 -23 -12 -57z"/>
<path d="M2325 1140 c-10 -11 -13 -20 -7 -20 7 0 12 5 12 10 0 6 5 10 11 10 5
0 7 -4 4 -10 -3 -5 -1 -10 4 -10 13 0 14 10 3 28 -7 9 -13 8 -27 -8z"/>
<path d="M4342 1040 c0 -19 2 -27 5 -17 2 9 2 25 0 35 -3 9 -5 1 -5 -18z"/>
<path d="M4333 965 c0 -22 2 -30 4 -17 2 12 2 30 0 40 -3 9 -5 -1 -4 -23z"/>
<path d="M1690 929 c0 -5 11 -27 25 -47 14 -20 25 -32 25 -27 0 6 -7 19 -15
29 -8 11 -15 28 -15 38 0 10 -4 18 -10 18 -5 0 -10 -5 -10 -11z"/>
<path d="M4322 890 c0 -19 2 -27 5 -17 2 9 2 25 0 35 -3 9 -5 1 -5 -18z"/>
<path d="M4313 790 c0 -25 2 -35 4 -22 2 12 2 32 0 45 -2 12 -4 2 -4 -23z"/>
<path d="M4287 485 c-19 -156 -17 -293 5 -423 l10 -62 103 0 c93 0 103 2 108
19 4 18 9 19 41 9 27 -8 42 -8 61 0 34 16 23 32 -20 32 -57 0 -83 15 -94 56
-10 35 -46 84 -62 84 -4 0 -9 -8 -11 -17 -6 -28 -35 34 -53 111 -8 35 -25 86
-37 113 -15 33 -24 76 -28 138 l-5 90 -18 -150z"/>
<path d="M1580 540 c0 -5 -6 -10 -14 -10 -12 0 -13 -7 -6 -31 9 -30 8 -31 -18
-26 l-27 5 23 -18 c13 -11 22 -22 22 -25 -1 -4 2 -10 6 -13 4 -4 4 -1 0 6 -9
15 -11 16 52 -8 58 -22 102 -28 67 -8 -27 15 -65 50 -65 60 0 4 9 8 20 8 28 0
25 10 -12 42 -35 30 -48 34 -48 18z"/>
<path d="M1586 408 c4 -7 -1 -8 -16 -3 -20 6 -22 5 -15 -11 4 -11 8 -40 9 -66
1 -32 5 -48 14 -48 10 0 10 -3 0 -14 -9 -10 -20 -11 -38 -5 -24 9 -24 8 -6 -6
29 -22 126 -56 138 -49 6 4 0 13 -16 21 -17 9 -26 22 -26 37 0 23 -22 51 -32
41 -2 -3 -3 8 0 24 2 16 11 32 19 35 13 5 84 -3 173 -20 l25 -4 -25 11 c-14 6
-32 12 -40 14 -8 2 -37 11 -65 20 -103 33 -106 34 -99 23z"/>
<path d="M2959 243 c0 -5 -2 -16 -4 -26 -2 -11 -1 -16 3 -13 8 8 14 46 7 46
-3 0 -5 -3 -6 -7z"/>
<path d="M2983 215 c0 -8 4 -12 9 -9 5 3 6 10 3 15 -9 13 -12 11 -12 -6z"/>
<path d="M2843 213 c-13 -2 -23 -9 -23 -14 0 -5 -9 -9 -20 -9 -13 0 -20 -7
-20 -19 0 -30 24 -78 37 -74 6 2 17 -6 23 -19 11 -23 11 -23 -6 -3 -15 18 -16
18 -10 2 3 -10 6 -24 6 -31 0 -15 77 -19 86 -5 3 5 0 9 -5 9 -6 0 -11 5 -11
11 0 5 5 7 10 4 6 -4 10 5 10 20 0 18 4 24 13 20 6 -4 3 1 -8 10 -20 17 -20
17 2 10 13 -3 31 -1 40 5 16 10 16 11 -4 7 -15 -3 -20 -1 -16 9 3 8 10 11 17
7 6 -4 4 1 -4 11 -8 11 -16 14 -18 7 -5 -14 -62 -14 -62 0 0 8 -6 7 -17 -2
-15 -12 -16 -12 -8 1 9 14 18 52 12 49 -1 -1 -12 -4 -24 -6z m48 -96 c-1 -12
-15 -9 -19 4 -3 6 1 10 8 8 6 -3 11 -8 11 -12z"/>
<path d="M1560 187 c0 -32 27 -46 70 -34 l35 9 -45 24 c-56 29 -60 29 -60 1z"/>
<path d="M2875 200 c-3 -5 1 -10 10 -10 9 0 13 5 10 10 -3 6 -8 10 -10 10 -2
0 -7 -4 -10 -10z"/>
<path d="M2997 181 c-6 -23 7 -48 17 -32 4 6 3 11 -2 11 -6 0 -8 9 -5 20 3 11
3 20 0 20 -2 0 -7 -9 -10 -19z"/>
<path d="M4880 135 c-13 -14 -19 -25 -13 -25 5 0 20 11 33 25 13 14 19 25 13
25 -5 0 -20 -11 -33 -25z"/>
<path d="M4124 101 c-44 -27 -51 -41 -20 -41 14 0 28 5 31 10 3 5 15 10 26 10
12 0 19 7 19 20 0 25 -16 25 -56 1z"/>
<path d="M2858 3 c6 -2 18 -2 25 0 6 3 1 5 -13 5 -14 0 -19 -2 -12 -5z"/>
</g>
</svg>
