<?xml version="1.0" standalone="no"?>
<!DOCTYPE svg PUBLIC "-//W3C//DTD SVG 20010904//EN"
 "http://www.w3.org/TR/2001/REC-SVG-20010904/DTD/svg10.dtd">
<svg version="1.0" xmlns="http://www.w3.org/2000/svg"
 width="640.000000pt" height="640.000000pt" viewBox="0 0 640.000000 640.000000"
 preserveAspectRatio="xMidYMid meet">

<g transform="translate(0.000000,640.000000) scale(0.100000,-0.100000)"
fill="#000000" stroke="none">
<path d="M0 3735 l0 -2665 36 0 c23 0 33 -4 28 -11 -3 -6 -19 -9 -35 -5 -29 5
-41 -8 -16 -17 10 -4 10 -6 0 -6 -7 -1 -13 -12 -13 -26 0 -21 5 -25 33 -26
l32 -1 -32 -10 c-47 -15 -41 -28 15 -29 l47 -2 -48 -10 c-78 -17 -54 -29 46
-23 l92 5 -60 -14 c-33 -8 -72 -14 -86 -15 -15 0 -30 -7 -33 -16 -9 -23 -7
-404 2 -404 4 0 25 9 46 21 26 14 47 18 67 14 l29 -6 -34 -35 c-21 -21 -43
-34 -59 -34 -53 0 -75 -28 -45 -58 7 -7 8 -12 2 -12 -6 0 -11 -13 -12 -30 -1
-29 0 -30 49 -30 27 0 49 5 49 10 0 6 5 10 11 10 7 0 17 7 23 16 6 8 20 16 31
18 10 1 21 9 23 16 3 7 0 10 -7 6 -6 -4 -11 -2 -11 5 0 8 -12 10 -37 6 -35 -6
-36 -6 -14 9 12 9 31 14 42 11 14 -4 19 0 19 16 0 12 4 28 9 36 14 22 6 -112
-8 -138 -7 -12 -8 -20 -4 -19 16 5 71 -35 66 -49 -3 -7 2 -13 11 -13 18 0 40
-36 27 -44 -5 -4 -21 -2 -36 4 -15 6 -31 8 -35 5 -5 -3 -26 -2 -47 3 -47 11
-68 5 -53 -13 14 -16 -37 -8 -65 11 -42 29 -46 20 -44 -91 l2 -105 3199 0
3198 0 0 3200 0 3200 -3200 0 -3200 0 0 -2665z m3903 1128 c4 -2 4 -9 1 -15
-4 -6 1 -8 13 -4 17 5 21 2 21 -20 0 -14 -3 -21 -7 -16 -4 7 -12 8 -21 2 -12
-8 -13 -10 -1 -10 8 0 -7 -20 -33 -45 -27 -25 -54 -45 -62 -45 -17 0 -28 -40
-22 -80 4 -24 0 -31 -24 -41 -15 -6 -28 -18 -28 -26 0 -8 5 -11 10 -8 6 4 10
-5 10 -19 0 -14 4 -26 9 -26 23 0 43 15 54 39 11 26 11 25 15 -14 2 -21 -2
-58 -9 -82 -9 -35 -16 -43 -35 -43 -16 0 -24 -6 -24 -17 0 -13 3 -14 12 -5 18
18 43 15 46 -5 13 -109 7 -119 -53 -80 -33 21 -75 95 -75 131 0 8 -5 16 -11
18 -12 4 -26 64 -33 143 -3 33 -10 74 -15 91 -6 21 -5 36 1 42 6 6 11 19 12
29 2 40 59 88 136 116 15 6 98 -2 113 -10z m-2783 -463 c-12 -16 -17 -30 -11
-30 7 0 10 -70 9 -212 -2 -193 -11 -409 -16 -365 -1 9 -8 17 -14 17 -9 0 -8 4
2 10 10 6 11 10 3 10 -7 0 -13 7 -13 16 0 8 -5 12 -11 9 -6 -4 -10 -1 -8 6 5
39 -2 69 -16 69 -17 0 -18 2 -9 25 5 13 8 14 15 3 6 -8 8 4 8 32 -1 39 -2 41
-8 15 -6 -27 -7 -28 -15 -10 -5 11 -8 24 -7 28 1 5 -4 7 -10 5 -8 -3 -11 -35
-10 -103 1 -92 0 -98 -13 -70 -8 19 -11 49 -8 81 2 28 1 54 -4 57 -5 3 -8 -16
-6 -41 2 -40 1 -44 -9 -27 -13 20 -17 63 -21 212 -2 51 -5 93 -9 93 -3 0 -2
25 1 55 4 32 2 56 -4 58 -20 7 4 37 29 37 37 0 117 21 140 37 32 21 38 15 15
-17z m1535 -221 c11 -17 -1 -21 -15 -4 -8 9 -8 15 -2 15 6 0 14 -5 17 -11z
m-68 -89 c14 -1 51 -36 53 -51 6 -37 1 -39 -90 -39 -53 0 -90 4 -90 10 0 6 5
10 10 10 6 0 10 7 10 16 0 9 8 30 18 47 31 57 35 59 59 32 12 -14 26 -25 30
-25z m-1907 -20 c-12 -16 -23 -39 -25 -51 -6 -28 -9 -31 -28 -23 -13 5 -10 14
20 55 19 27 39 49 45 49 5 0 0 -13 -12 -30z m1020 -35 c11 -13 8 -15 -15 -15
-23 0 -26 2 -15 15 7 8 14 15 15 15 1 0 8 -7 15 -15z m-1165 -5 c3 -5 2 -10
-3 -10 -12 0 -51 -97 -67 -171 -15 -73 -20 -39 -5 40 11 58 48 151 61 151 4 0
11 -4 14 -10z m1208 -69 c9 -19 17 -44 18 -55 0 -12 3 -15 6 -8 6 16 43 -29
43 -52 0 -9 4 -16 9 -16 5 0 22 -21 37 -47 15 -27 34 -58 42 -70 l14 -23 -109
0 -110 0 -41 70 c-23 38 -42 76 -42 85 0 8 -5 14 -12 13 -6 -2 -18 14 -26 35
-14 34 -13 39 4 58 l19 21 6 -43 6 -44 1 51 c1 28 5 54 9 58 4 4 30 6 58 5 46
-3 51 -5 68 -38z m518 19 c21 -16 21 -19 6 -20 -10 0 -29 7 -43 16 -13 9 -27
14 -31 10 -3 -3 -1 -6 5 -6 7 0 12 -4 12 -10 0 -5 -7 -10 -16 -10 -10 0 -14
-6 -11 -14 4 -10 1 -13 -7 -10 -15 6 -30 -22 -20 -37 3 -5 -1 -9 -8 -9 -8 -1
-4 -9 10 -19 27 -24 28 -31 2 -31 -11 0 -23 -7 -26 -15 -4 -8 -12 -15 -19 -15
-15 0 -45 -43 -45 -64 0 -8 7 -19 16 -24 13 -7 17 -26 18 -85 1 -46 6 -81 14
-89 6 -6 12 -22 12 -34 0 -13 5 -26 10 -29 6 -3 10 -17 10 -30 0 -60 -60 -31
-61 30 0 26 -11 55 -30 85 -36 56 -79 146 -79 165 0 8 4 15 10 15 6 0 5 10 -2
25 -8 19 -8 38 1 78 21 96 84 145 187 146 47 1 67 -4 85 -19z m359 -5 c0 -3
-15 -35 -34 -72 -19 -38 -37 -78 -41 -90 -3 -13 -11 -23 -16 -23 -5 0 -9 -5
-9 -12 0 -7 -7 -32 -16 -55 l-17 -43 -53 0 -54 0 0 83 c0 68 4 89 24 123 13
22 26 53 30 67 6 27 7 27 96 27 50 0 90 -2 90 -5z m-1575 -137 c-3 -18 -8 -38
-9 -45 -4 -21 -15 -26 -22 -10 -3 9 1 24 10 32 9 9 16 25 16 36 0 10 3 19 6
19 4 0 3 -15 -1 -32z m-340 11 c12 -18 -1 -20 -36 -5 l-34 15 32 1 c17 0 35
-5 38 -11z m35 -4 c-7 -9 -15 -13 -17 -11 -7 7 7 26 19 26 6 0 6 -6 -2 -15z
m4352 -19 c4 -6 2 -13 -4 -17 -6 -4 -7 -12 -3 -19 4 -7 10 -8 14 -3 3 5 14 1
24 -9 9 -10 13 -18 7 -18 -5 0 -10 -7 -10 -15 0 -8 -3 -15 -7 -16 -5 0 -24 -2
-44 -4 -59 -7 -89 -22 -89 -47 0 -17 3 -19 12 -10 21 21 32 13 12 -10 -17 -20
-18 -21 -1 -15 11 4 20 1 23 -7 9 -22 45 -6 56 25 15 44 28 35 28 -21 0 -38
-4 -52 -19 -60 -14 -7 -20 -7 -23 2 -2 6 -14 -5 -27 -25 -17 -28 -21 -44 -15
-72 7 -39 19 -46 27 -15 5 19 33 37 43 28 2 -3 0 -17 -6 -32 -8 -23 -7 -26 8
-24 12 2 16 -3 14 -17 -2 -11 -9 -23 -14 -26 -6 -4 -7 -20 -3 -39 6 -25 4 -31
-6 -27 -8 2 -13 8 -12 13 1 5 -12 9 -28 10 -38 1 -59 20 -59 54 0 41 -22 86
-41 82 -12 -2 -18 8 -22 40 -4 24 -8 52 -10 63 -2 11 -2 14 0 8 8 -24 22 -13
27 20 3 17 5 63 3 101 -2 66 -1 69 32 96 27 23 40 27 70 23 20 -4 39 -11 43
-17z m-2371 -6 c10 -6 19 -21 19 -33 0 -21 -1 -21 -13 3 -7 15 -25 28 -42 31
-25 5 -26 7 -7 8 13 0 32 -4 43 -9z m1128 -11 c-16 -14 -19 -19 -7 -15 9 3 19
0 21 -7 3 -9 10 -9 28 -1 68 32 80 34 105 21 l26 -14 -27 -17 -28 -18 7 26 6
26 -33 -16 c-18 -9 -46 -36 -63 -62 -26 -42 -29 -44 -32 -24 -2 13 2 29 8 37
13 16 5 35 -15 35 -20 0 -30 -21 -14 -31 10 -6 6 -11 -18 -20 -18 -6 -31 -14
-28 -19 4 -6 -52 -7 -123 -1 -17 1 3 40 32 61 23 17 131 57 160 59 16 1 15 -2
-5 -20z m-3248 -17 c-8 -16 -7 -21 5 -26 11 -4 15 -14 12 -31 -4 -21 -3 -23 9
-14 20 18 27 4 10 -23 -8 -12 -18 -34 -22 -48 l-8 -24 37 28 c21 15 40 25 43
22 9 -8 -17 -36 -34 -36 -7 0 -17 -8 -20 -17 -4 -10 -10 -21 -15 -24 -5 -3 3
-17 16 -32 26 -28 23 -38 -8 -33 -11 1 -24 18 -31 40 -7 21 -16 40 -19 43 -6
6 -10 -13 -7 -31 1 -5 -8 -19 -20 -32 -20 -21 -21 -29 -15 -104 5 -54 4 -80
-3 -80 -6 0 -10 3 -10 8 5 31 -3 102 -11 102 -6 0 -10 -8 -8 -17 2 -13 -4 -18
-22 -18 -14 0 -28 5 -32 10 -5 6 -8 4 -8 -6 0 -9 -20 -22 -51 -33 -28 -10 -71
-34 -95 -52 -44 -34 -68 -41 -92 -26 -19 12 11 35 93 72 39 17 85 39 103 48
19 9 46 15 61 14 24 -2 32 5 54 48 14 27 21 50 16 50 -6 0 -8 4 -5 9 4 5 2 11
-3 13 -6 1 1 30 15 63 32 78 33 81 9 77 -16 -2 -17 -1 -5 7 8 5 18 7 22 5 4
-3 8 4 8 15 0 12 4 21 9 21 5 0 11 10 14 22 4 12 9 19 12 16 4 -3 2 -15 -4
-26z m2094 -16 c-11 -8 -24 -12 -29 -9 -5 3 -7 0 -4 -7 2 -8 10 -16 18 -18 7
-3 10 0 6 7 -4 6 -2 11 4 11 15 0 24 -30 12 -42 -7 -7 -17 -6 -33 3 -17 9 -24
9 -27 0 -2 -6 -7 -9 -12 -6 -4 3 -10 -6 -12 -20 -4 -20 -3 -23 8 -14 17 14 18
5 3 -22 -6 -12 -17 -18 -25 -15 -8 3 -12 1 -9 -4 3 -5 0 -20 -7 -32 -7 -13
-11 -26 -10 -30 1 -5 -2 -8 -6 -8 -15 0 -31 -47 -25 -71 4 -15 3 -20 -5 -15
-16 10 -15 65 2 98 8 15 12 29 9 32 -7 7 -28 -31 -37 -70 -4 -16 -12 -32 -18
-35 -7 -4 -6 -13 1 -27 7 -14 8 -23 1 -27 -5 -3 -10 3 -10 14 0 11 -5 23 -10
26 -6 3 -8 18 -5 33 6 26 5 26 -8 -3 -8 -18 -12 -54 -10 -93 2 -40 -1 -61 -7
-57 -6 3 -10 21 -11 38 0 18 -4 41 -8 51 -6 16 -10 13 -24 -22 -9 -23 -22 -42
-28 -42 -7 0 -8 7 -4 18 4 9 15 37 25 62 37 96 61 142 105 207 52 77 93 102
164 103 41 0 43 -1 26 -14z m1455 5 c0 -5 8 -18 18 -27 16 -17 16 -17 -3 -10
-11 5 -25 9 -31 9 -13 0 -6 37 7 37 5 0 9 -4 9 -9z m-3054 -97 c-15 -14 -16
-13 -16 10 0 14 5 28 10 31 6 3 11 16 12 28 1 12 3 5 5 -16 3 -25 -1 -42 -11
-53z m1088 61 c-4 -8 -8 -15 -10 -15 -2 0 -4 7 -4 15 0 8 4 15 10 15 5 0 7 -7
4 -15z m1856 5 c0 -5 -2 -10 -4 -10 -3 0 -8 5 -11 10 -3 6 -1 10 4 10 6 0 11
-4 11 -10z m-390 -10 c0 -5 -2 -10 -4 -10 -3 0 -8 5 -11 10 -3 6 -1 10 4 10 6
0 11 -4 11 -10z m-2945 -10 c-4 -6 -10 -8 -15 -5 -5 3 -13 -3 -19 -12 -9 -15
-10 -15 -11 -2 0 9 3 19 7 22 10 11 45 8 38 -3z m3228 -5 c-3 -9 -8 -14 -10
-11 -3 3 -2 9 2 15 9 16 15 13 8 -4z m51 -29 c-3 -9 -13 -16 -22 -16 -13 0
-12 3 3 20 20 23 29 21 19 -4z m46 -5 c0 -5 -7 -12 -16 -15 -14 -5 -15 -4 -4
9 14 17 20 19 20 6z m-2059 -94 c24 -40 42 -74 40 -76 -8 -11 25 -18 38 -8 12
10 13 9 7 -8 -16 -42 -56 -209 -56 -236 0 -25 -32 -69 -51 -69 -4 0 -13 -24
-19 -52 -7 -29 -20 -69 -30 -88 -9 -19 -15 -41 -13 -47 5 -15 -23 -47 -31 -35
-11 18 6 80 23 85 11 3 22 24 31 63 8 32 14 63 12 67 -5 17 40 173 65 221 l25
51 -28 -26 c-16 -15 -39 -32 -51 -38 -13 -6 -23 -16 -23 -22 0 -6 5 -7 10 -4
7 4 8 -3 4 -22 -9 -38 -14 -42 -14 -10 0 31 -16 36 -24 9 -4 -10 -20 -32 -37
-48 l-31 -29 7 30 c6 29 6 29 -9 10 -8 -11 -19 -24 -23 -29 -5 -5 -7 -26 -5
-45 4 -34 3 -35 -12 -16 -15 20 -15 19 -16 -7 0 -18 -14 -43 -37 -69 -36 -40
-37 -40 -19 -70 15 -25 15 -29 2 -29 -21 0 -20 -8 4 -48 25 -41 25 -46 0 -39
-27 7 -27 -20 0 -28 27 -9 14 -28 -16 -22 -13 2 -22 -1 -21 -7 1 -6 -8 -12
-20 -14 -13 -2 -23 -8 -23 -13 0 -5 -4 -9 -9 -9 -6 0 -3 16 5 35 20 48 19 48
-31 42 -38 -6 -45 -4 -46 11 -1 16 -2 16 -6 0 -3 -11 -15 -18 -31 -19 -15 0
-48 -2 -74 -4 -42 -4 -47 -2 -51 18 -4 20 -4 20 -6 -3 -1 -23 -6 -25 -51 -27
l-49 -3 2 50 c1 28 -1 50 -5 50 -5 0 -8 -13 -8 -30 0 -19 -5 -30 -14 -30 -15
0 -26 70 -25 157 l1 51 46 1 c26 1 65 3 87 6 22 2 86 5 143 6 56 1 102 5 102
10 0 5 9 9 20 9 11 0 20 -6 20 -12 0 -9 3 -9 9 1 5 8 18 12 30 8 18 -4 24 3
42 55 18 47 34 70 81 111 l58 52 -25 37 c-13 20 -26 42 -27 49 -2 8 -11 20
-20 27 -10 7 -18 18 -18 24 0 6 -16 33 -35 59 -19 27 -35 51 -35 54 0 2 49 4
109 4 l109 0 43 -72z m499 57 c0 -10 -13 -14 -45 -14 -32 0 -45 4 -45 14 0 10
13 14 45 14 32 0 45 -4 45 -14z m-1965 -34 c3 -5 1 -10 -4 -10 -6 0 -11 5 -11
10 0 6 2 10 4 10 3 0 8 -4 11 -10z m1625 -21 c0 -5 -4 -9 -10 -9 -5 0 -10 7
-10 16 0 8 5 12 10 9 6 -3 10 -10 10 -16z m66 -22 c-2 -12 -8 -33 -13 -46 l-9
-24 -22 28 c-26 33 -27 43 -6 66 22 25 56 8 50 -24z m-1109 -54 c-2 -16 -4 -3
-4 27 0 30 2 43 4 28 2 -16 2 -40 0 -55z m4108 59 c-3 -3 -11 0 -18 7 -9 10
-8 11 6 5 10 -3 15 -9 12 -12z m-4488 -28 c-9 -9 -28 6 -21 18 4 6 10 6 17 -1
6 -6 8 -13 4 -17z m4399 -10 c-3 -9 -6 -20 -6 -25 0 -5 -7 -9 -15 -9 -18 0
-18 5 -5 31 13 23 35 26 26 3z m-3039 -96 c-3 -7 -5 -2 -5 12 0 14 2 19 5 13
2 -7 2 -19 0 -25z m476 2 c-3 -11 -9 -20 -14 -20 -11 0 -11 3 -3 24 9 23 23
20 17 -4z m-453 -43 c0 8 8 8 28 1 20 -8 45 -8 81 -1 58 12 57 1 -1 -15 -21
-6 -52 -7 -73 -2 -19 4 -35 6 -35 3 0 -3 -7 0 -15 7 -8 7 -15 18 -15 24 0 6 7
2 15 -8 8 -11 15 -15 15 -9z m-1686 -6 c3 -5 -8 -14 -24 -20 -35 -12 -41 1 -7
17 12 6 23 11 24 11 1 1 4 -3 7 -8z m3234 -58 c2 -9 -7 -13 -28 -13 -28 0 -31
2 -20 15 15 18 41 16 48 -2z m1092 -13 c0 -5 -5 -10 -11 -10 -5 0 -7 5 -4 10
3 6 8 10 11 10 2 0 4 -4 4 -10z m-4531 -21 c-22 -14 -33 -10 -19 6 7 8 17 12
22 9 6 -4 5 -10 -3 -15z m3371 -19 c0 -27 -3 -30 -30 -30 -25 0 -30 4 -30 24
0 25 11 34 43 35 12 1 17 -7 17 -29z m70 0 c0 -27 -3 -30 -30 -30 -27 0 -30 3
-30 30 0 27 3 30 30 30 27 0 30 -3 30 -30z m40 -22 c0 -5 -7 -8 -15 -8 -10 0
-15 10 -15 27 0 26 1 26 15 7 8 -10 15 -22 15 -26z m488 16 c-3 -32 -38 -34
-38 -1 0 16 6 23 20 24 15 1 19 -4 18 -23z m562 -4 c0 -27 -3 -30 -30 -30 -34
0 -36 6 -14 38 22 32 44 28 44 -8z m46 18 c-3 -7 -9 -21 -12 -30 -10 -28 -24
-21 -24 12 0 24 4 30 21 30 13 0 19 -5 15 -12z m-1279 -35 c-3 -2 -18 -3 -34
-1 l-28 3 30 17 c26 14 30 14 33 1 2 -8 2 -17 -1 -20z m610 5 c-3 -7 -5 -2 -5
12 0 14 2 19 5 13 2 -7 2 -19 0 -25z m-677 -43 c0 -20 -5 -25 -24 -25 -30 0
-42 16 -26 35 21 25 50 19 50 -10z m70 0 c0 -21 -5 -25 -30 -25 -25 0 -30 4
-30 25 0 21 5 25 30 25 25 0 30 -4 30 -25z m70 0 c0 -21 -5 -25 -30 -25 -25 0
-30 4 -30 25 0 21 5 25 30 25 25 0 30 -4 30 -25z m70 0 c0 -21 -5 -25 -30 -25
-25 0 -30 4 -30 25 0 21 5 25 30 25 25 0 30 -4 30 -25z m60 6 c15 -28 13 -31
-20 -31 -25 0 -30 4 -30 25 0 31 34 35 50 6z m-1400 -18 c0 -20 -3 -24 -11
-16 -7 7 -9 19 -6 27 10 24 17 19 17 -11z m1807 -5 c-3 -7 -5 -2 -5 12 0 14 2
19 5 13 2 -7 2 -19 0 -25z m63 12 c0 -13 -7 -20 -20 -20 -13 0 -20 7 -20 20 0
13 7 20 20 20 13 0 20 -7 20 -20z m487 -27 c-3 -3 -13 -3 -21 -1 -15 3 -15 6
1 28 l18 25 3 -23 c2 -13 1 -26 -1 -29z m73 32 c0 -9 -12 -20 -26 -25 -34 -13
-34 -13 -34 15 0 21 5 25 30 25 20 0 30 -5 30 -15z m50 5 c0 -5 -9 -10 -20
-10 -11 0 -20 5 -20 10 0 6 9 10 20 10 11 0 20 -4 20 -10z m-2520 -17 c0 -10
3 -29 6 -43 4 -20 3 -22 -5 -10 -6 8 -11 26 -11 39 0 16 -4 21 -15 17 -8 -3
-15 -1 -15 4 0 6 9 10 20 10 12 0 20 -7 20 -17z m-40 -64 c0 -5 -7 -9 -15 -9
-8 0 -15 -6 -15 -12 0 -7 -7 -2 -16 10 -8 12 -21 19 -27 16 -7 -4 -9 -4 -5 1
4 4 3 14 -3 22 -18 20 5 15 29 -7 23 -22 56 -30 34 -8 -7 7 -12 21 -12 33 0
17 3 15 15 -9 8 -15 15 -32 15 -37z m-2011 -37 c-12 -31 -28 -64 -34 -72 -7
-8 -16 -25 -19 -37 -4 -13 -11 -23 -16 -23 -18 0 -2 49 38 116 23 39 42 77 43
85 0 10 2 11 6 1 3 -7 -5 -39 -18 -70z m2091 64 c0 -3 -4 -8 -10 -11 -5 -3
-10 -1 -10 4 0 6 5 11 10 11 6 0 10 -2 10 -4z m-296 -64 c7 7 15 21 19 31 3 9
11 17 18 17 6 0 1 -14 -11 -32 -12 -18 -31 -53 -42 -78 -12 -25 -23 -39 -26
-32 -2 7 2 20 10 29 8 10 9 18 3 20 -6 2 -9 20 -7 41 5 57 16 72 20 29 3 -30
6 -35 16 -25z m1426 21 l0 -38 -14 27 c-8 16 -18 32 -21 38 -3 5 3 10 14 10
18 0 21 -6 21 -37z m69 -18 c0 -54 -1 -55 -29 -55 -28 0 -28 1 -28 55 1 53 1
55 29 55 27 0 28 -1 28 -55z m71 30 c0 -21 -5 -25 -30 -25 -25 0 -30 4 -30 25
0 21 5 25 30 25 25 0 30 -4 30 -25z m71 8 c1 -17 2 -17 6 0 9 33 101 12 103
-24 0 -3 -38 -6 -85 -6 -83 -1 -85 -1 -85 23 0 20 5 24 30 24 21 0 30 -5 31
-17z m259 -9 c0 -2 -9 -4 -21 -4 -11 0 -18 4 -14 10 5 8 35 3 35 -6z m207 -6
c-3 -8 -6 -5 -6 6 -1 11 2 17 5 13 3 -3 4 -12 1 -19z m57 8 c-9 -24 -34 -28
-34 -6 0 13 7 20 20 20 13 0 17 -5 14 -14z m-201 -3 c-7 -2 -19 -2 -25 0 -7 3
-2 5 12 5 14 0 19 -2 13 -5z m47 -3 c0 -5 -2 -10 -4 -10 -3 0 -8 5 -11 10 -3
6 -1 10 4 10 6 0 11 -4 11 -10z m-1850 -21 c0 -5 -7 -9 -15 -9 -9 0 -12 6 -9
15 6 15 24 11 24 -6z m150 -27 c0 -12 -3 -11 -14 4 -18 23 -22 19 -31 -28 -7
-38 -1 -47 60 -92 29 -21 10 -32 -31 -17 -44 16 -48 12 -65 -76 -7 -35 -16
-63 -21 -63 -5 0 -5 12 -2 26 5 19 3 25 -4 20 -6 -4 -16 2 -21 13 -18 32 -12
48 6 21 l17 -25 17 55 16 54 -36 19 c-46 24 -45 23 -38 41 5 14 10 14 43 0 20
-8 37 -14 39 -12 1 2 5 20 8 41 5 35 4 37 -11 26 -9 -7 -23 -20 -29 -28 -7 -8
-16 -11 -20 -8 -8 9 47 68 58 61 4 -2 11 1 14 6 9 14 45 -17 45 -38z m2265 13
c-13 -20 -26 -41 -28 -48 -2 -7 -7 -9 -11 -5 -8 7 42 88 55 88 5 0 -2 -16 -16
-35z m-1007 -55 c0 -60 0 -60 -29 -60 -26 0 -29 4 -29 30 0 17 5 30 13 31 10
0 10 2 0 6 -7 2 -13 16 -13 29 0 20 5 24 29 24 29 0 29 0 29 -60z m200 28 c3
-23 -1 -28 -20 -29 l-23 -2 23 -4 c20 -4 22 -10 22 -64 l0 -59 -31 0 c-30 0
-31 2 -27 33 3 17 2 41 -3 52 -5 14 -8 4 -8 -32 l-1 -53 -60 0 -60 0 0 95 0
96 93 -3 92 -3 3 -27z m-3178 -28 c0 -5 -2 -10 -4 -10 -3 0 -8 5 -11 10 -3 6
-1 10 4 10 6 0 11 -4 11 -10z m2910 -30 c0 -36 -13 -38 -34 -8 -22 31 -20 38
9 38 21 0 25 -5 25 -30z m304 3 c3 -10 5 -21 3 -24 -1 -4 5 -15 14 -25 11 -12
17 -38 18 -71 1 -52 0 -53 -29 -53 -27 0 -30 3 -30 30 0 24 4 30 23 31 l22 2
-22 4 c-20 4 -22 10 -22 64 1 57 12 77 23 42z m726 -19 c0 -19 -5 -24 -25 -24
-29 0 -30 3 -9 35 19 29 34 24 34 -11z m-2401 -19 c0 -5 -4 -3 -9 5 -5 8 -9
22 -9 30 0 16 17 -16 18 -35z m-162 -17 c-3 -7 -5 -2 -5 12 0 14 2 19 5 13 2
-7 2 -19 0 -25z m1603 -18 c0 -27 -3 -30 -30 -30 -27 0 -30 3 -30 30 0 27 3
30 30 30 27 0 30 -3 30 -30z m-3430 11 c0 -17 -18 -21 -24 -6 -3 9 0 15 9 15
8 0 15 -4 15 -9z m3870 -1 c0 -5 -5 -10 -11 -10 -5 0 -7 5 -4 10 3 6 8 10 11
10 2 0 4 -4 4 -10z m97 -27 c-3 -10 -5 -4 -5 12 0 17 2 24 5 18 2 -7 2 -21 0
-30z m45 17 c5 25 5 25 7 -2 1 -19 -4 -28 -14 -28 -10 0 -15 9 -14 28 l1 27 7
-25 8 -25 5 25z m373 -10 c0 -23 -4 -25 -47 -26 -48 -1 -50 2 -19 38 24 28 66
20 66 -12z m-2654 6 c-9 -11 -9 -15 1 -19 7 -2 10 -8 5 -12 -4 -5 -12 -4 -17
1 -12 12 -3 44 12 44 6 0 6 -6 -1 -14z m-601 -12 c0 -17 -22 -14 -28 4 -2 7 3
12 12 12 9 0 16 -7 16 -16z m4100 -19 c0 -5 -5 -3 -10 5 -5 8 -10 20 -10 25 0
6 5 3 10 -5 5 -8 10 -19 10 -25z m-3045 3 c-9 -30 -42 -65 -66 -71 -33 -9 -31
12 3 26 18 8 39 26 47 40 18 33 25 35 16 5z m1245 -38 c0 -36 -13 -38 -34 -8
-22 31 -20 38 9 38 21 0 25 -5 25 -30z m130 0 c0 -29 0 -29 -60 -29 -59 1 -60
1 -60 29 0 28 1 28 60 29 60 0 60 0 60 -29z m70 0 c0 -27 -3 -30 -30 -30 -27
0 -30 3 -30 30 0 27 3 30 30 30 27 0 30 -3 30 -30z m105 0 c15 -29 15 -30 -5
-30 -16 0 -20 7 -20 30 0 17 2 30 5 30 2 0 11 -13 20 -30z m1155 5 c0 -14 -2
-25 -4 -25 -2 0 -6 11 -8 25 -3 14 -1 25 3 25 5 0 9 -11 9 -25z m-923 -22 c-3
-10 -5 -4 -5 12 0 17 2 24 5 18 2 -7 2 -21 0 -30z m53 12 c0 -19 -5 -25 -21
-25 -15 0 -19 4 -15 16 3 9 6 20 6 25 0 5 7 9 15 9 9 0 15 -9 15 -25z m352 -4
c-4 -27 -6 -28 -58 -29 -61 0 -69 6 -48 36 12 17 25 22 63 22 47 0 47 -1 43
-29z m-3905 2 c-4 -3 -2 -12 4 -20 15 -17 2 -17 -16 1 -14 14 -10 26 8 26 6 0
7 -3 4 -7z m1107 -42 c-15 -15 -103 -17 -116 -2 -11 10 -6 11 22 7 19 -4 49
-3 65 2 33 10 44 7 29 -7z m1709 2 c-7 -2 -21 -2 -30 0 -10 3 -4 5 12 5 17 0
24 -2 18 -5z m207 -18 c0 -34 -41 -35 -63 -2 -15 23 -15 24 24 25 35 2 39 0
39 -23z m70 0 c0 -21 -5 -25 -30 -25 -25 0 -30 4 -30 25 0 21 5 25 30 25 25 0
30 -4 30 -25z m70 0 c0 -21 -5 -25 -30 -25 -25 0 -30 4 -30 25 0 21 5 25 30
25 25 0 30 -4 30 -25z m70 0 c0 -21 -5 -25 -30 -25 -25 0 -30 4 -30 25 0 21 5
25 30 25 25 0 30 -4 30 -25z m64 9 c11 -28 7 -34 -24 -34 -25 0 -30 4 -30 25
0 20 5 25 24 25 13 0 27 -7 30 -16z m-1604 -4 c-8 -5 -24 -9 -35 -9 l-20 0 20
9 c11 5 27 9 35 9 13 1 13 0 0 -9z m1807 -22 c-3 -7 -5 -2 -5 12 0 14 2 19 5
13 2 -7 2 -19 0 -25z m53 12 c0 -11 -7 -20 -15 -20 -8 0 -15 9 -15 20 0 11 7
20 15 20 8 0 15 -9 15 -20z m338 -2 c-3 -21 -8 -23 -75 -23 -40 0 -73 1 -73 3
0 2 5 12 10 23 9 16 22 19 76 19 62 0 65 -1 62 -22z m-2258 2 c0 -5 -10 -10
-22 -9 -22 0 -22 1 -3 9 11 5 21 9 23 9 1 1 2 -3 2 -9z m25 -20 c-3 -5 -14
-10 -23 -9 -14 0 -13 2 3 9 27 11 27 11 20 0z m55 -4 c-7 -7 -13 -7 -20 0 -6
6 -3 10 10 10 13 0 16 -4 10 -10z m-628 -18 c-9 -9 -15 -9 -24 0 -9 9 -7 12
12 12 19 0 21 -3 12 -12z m535 -4 c-3 -3 -12 -4 -19 -1 -8 3 -5 6 6 6 11 1 17
-2 13 -5z m1403 -31 c-1 -27 -1 -27 -15 -9 -19 25 -19 36 0 36 10 0 15 -10 15
-27z m70 2 c0 -21 -5 -25 -30 -25 -25 0 -30 4 -30 25 0 21 5 25 30 25 25 0 30
-4 30 -25z m70 0 c0 -21 -5 -25 -30 -25 -25 0 -30 4 -30 25 0 21 5 25 30 25
25 0 30 -4 30 -25z m70 0 c0 -21 -5 -25 -30 -25 -25 0 -30 4 -30 25 0 21 5 25
30 25 25 0 30 -4 30 -25z m70 0 c0 -21 -5 -25 -30 -25 -25 0 -30 4 -30 25 0
21 5 25 30 25 25 0 30 -4 30 -25z m38 0 c10 -22 9 -25 -8 -25 -15 0 -20 7 -20
25 0 14 4 25 8 25 5 0 14 -11 20 -25z m503 2 c0 -20 1 -20 11 3 11 26 25 12
14 -15 -4 -11 -23 -15 -76 -15 -67 0 -70 1 -70 24 0 23 3 24 60 24 55 0 60 -2
61 -21z m-131 -12 c0 -8 -7 -15 -16 -15 -14 0 -14 3 -4 15 7 8 14 15 16 15 2
0 4 -7 4 -15z m-620 -85 c0 -33 -4 -60 -8 -60 -10 0 -52 85 -52 105 0 10 10
15 30 15 l30 0 0 -60z m69 0 c-1 -59 -1 -60 -29 -60 -28 0 -28 1 -28 60 0 59
0 60 28 60 29 0 29 -1 29 -60z m68 -10 c-2 -38 0 -70 5 -70 4 0 8 32 8 70 l0
70 59 0 c51 0 61 -3 66 -20 9 -30 -4 -43 -39 -38 -17 3 -42 2 -56 -3 -18 -5
-10 -7 33 -8 l57 -1 0 -60 0 -60 -95 0 -95 0 0 30 c0 17 5 30 13 31 10 0 10 2
0 6 -9 3 -13 26 -13 64 l0 59 31 0 30 0 -4 -70z m484 48 l2 -23 4 22 c4 20 10
22 66 20 60 -2 62 -3 65 -29 l3 -28 -100 1 c-59 0 -101 5 -101 10 0 44 59 69
61 27z m-2563 -4 c-3 -3 -23 -7 -44 -9 -25 -2 -33 0 -23 6 15 9 76 13 67 3z
m-1148 -8 c0 -3 -4 -8 -10 -11 -5 -3 -10 -1 -10 4 0 6 5 11 10 11 6 0 10 -2
10 -4z m3406 -63 c11 -18 19 -52 21 -95 l4 -68 -30 0 c-26 0 -31 4 -31 25 0
17 7 29 23 35 22 9 22 9 1 9 -20 1 -22 6 -22 61 0 33 4 60 8 60 4 0 16 -12 26
-27z m234 -3 c0 -26 -4 -30 -26 -30 l-25 0 18 30 c9 17 21 30 25 30 4 0 8 -13
8 -30z m200 0 l0 -28 -95 0 -95 0 0 28 0 28 95 0 95 0 0 -28z m-2730 6 c0 -3
-4 -8 -10 -11 -5 -3 -10 -1 -10 4 0 6 5 11 10 11 6 0 10 -2 10 -4z m2050 -66
c0 -27 -3 -30 -30 -30 -27 0 -30 3 -30 30 0 27 3 30 30 30 27 0 30 -3 30 -30z
m477 -13 c-3 -19 -1 -40 4 -48 6 -9 9 2 9 33 l0 48 95 -1 95 -1 0 -29 c0 -26
-4 -29 -30 -29 -24 0 -30 4 -31 23 -2 22 -2 22 -6 -2 -4 -20 -9 -23 -36 -19
-18 3 -43 2 -57 -3 -18 -5 -10 -7 33 -8 l57 -1 0 -55 0 -55 -95 0 c-95 0 -95
0 -95 25 0 17 6 25 18 26 16 1 16 2 0 6 -15 4 -18 16 -18 64 l0 59 31 0 c30 0
31 -1 26 -33z m-69 -42 c2 -44 1 -45 -28 -45 -17 0 -30 3 -30 7 0 6 50 83 54
83 1 0 3 -20 4 -45z m-408 -15 c0 -37 -13 -39 -28 -5 -16 34 -15 35 8 35 16 0
20 -7 20 -30z m200 -1 l0 -29 -95 1 -95 1 0 28 0 28 95 0 95 -1 0 -28z m115 1
c15 -30 15 -30 -10 -30 -21 0 -25 5 -25 30 0 17 4 30 10 30 5 0 16 -13 25 -30z
m365 7 c0 -8 -9 -22 -20 -32 -11 -10 -17 -21 -15 -25 3 -5 2 -15 -1 -24 -12
-32 -21 -15 -22 39 0 54 0 55 29 55 18 0 29 -5 29 -13z m-2673 -33 c3 -9 6
-23 7 -32 1 -10 10 -32 20 -51 15 -28 16 -35 4 -43 -10 -8 -9 -9 4 -4 17 5 48
-17 48 -35 0 -5 -19 -9 -42 -10 -24 0 -71 -3 -105 -5 -35 -3 -63 -3 -63 -1 0
15 43 97 50 97 6 0 10 11 10 24 0 14 5 28 10 31 6 3 10 15 10 26 0 24 38 26
47 3z m2125 -28 c6 -8 8 -8 8 2 0 7 13 12 30 12 25 0 30 -4 30 -24 0 -24 -1
-24 -95 -24 -93 0 -95 0 -95 23 0 23 3 24 58 24 31 -1 60 -6 64 -13z m138 -11
c0 -21 -5 -25 -30 -25 -25 0 -30 4 -30 25 0 21 5 25 30 25 25 0 30 -4 30 -25z
m70 0 c0 -21 -5 -25 -30 -25 -25 0 -30 4 -30 25 0 21 5 25 30 25 25 0 30 -4
30 -25z m68 -2 c3 -20 -1 -23 -27 -23 -27 0 -31 4 -31 26 0 22 4 25 28 22 19
-2 28 -9 30 -25z m-278 -78 c0 -18 -5 -25 -19 -25 -31 0 -68 17 -74 34 -5 13
2 16 43 16 47 0 50 -2 50 -25z m70 0 c0 -21 -5 -25 -30 -25 -25 0 -30 4 -30
25 0 21 5 25 30 25 25 0 30 -4 30 -25z m70 0 c0 -21 -5 -25 -30 -25 -25 0 -30
4 -30 25 0 21 5 25 30 25 25 0 30 -4 30 -25z m70 0 c0 -21 -5 -25 -30 -25 -25
0 -30 4 -30 25 0 21 5 25 30 25 25 0 30 -4 30 -25z m70 0 c0 -22 -4 -25 -30
-23 -24 2 -30 7 -30 25 0 19 5 23 30 23 25 0 30 -4 30 -25z m130 -1 c0 -23 -3
-24 -60 -24 -57 0 -60 1 -60 24 0 23 3 24 60 24 57 0 60 -1 60 -24z m65 -1 c1
-19 -3 -23 -27 -23 -20 0 -28 5 -28 18 0 25 10 33 34 30 12 -2 20 -12 21 -25z
m-1495 -3 c0 -5 -12 -10 -26 -10 -14 0 -23 4 -19 10 3 6 15 10 26 10 10 0 19
-4 19 -10z m70 -6 c0 -2 -14 -4 -31 -4 -16 0 -28 4 -25 9 5 8 56 3 56 -5z m58
-1 c-10 -2 -26 -2 -35 0 -10 3 -2 5 17 5 19 0 27 -2 18 -5z m55 0 c-7 -2 -19
-2 -25 0 -7 3 -2 5 12 5 14 0 19 -2 13 -5z m1360 -10 c-7 -2 -19 -2 -25 0 -7
3 -2 5 12 5 14 0 19 -2 13 -5z m-1543 -33 c0 -25 -4 -30 -23 -30 -31 0 -35 5
-29 35 3 18 11 25 28 25 20 0 24 -5 24 -30z m70 0 c0 -27 -3 -30 -30 -30 -27
0 -30 3 -30 30 0 27 3 30 30 30 27 0 30 -3 30 -30z m70 0 c0 -27 -3 -30 -30
-30 -27 0 -30 3 -30 30 0 27 3 30 30 30 27 0 30 -3 30 -30z m130 0 c0 -29 0
-29 -60 -29 -59 1 -60 1 -60 29 0 28 1 28 60 29 60 0 60 0 60 -29z m70 0 c0
-27 -3 -30 -30 -30 -27 0 -30 3 -30 30 0 27 3 30 30 30 27 0 30 -3 30 -30z
m70 0 c0 -27 -3 -30 -30 -30 -27 0 -30 3 -30 30 0 27 3 30 30 30 27 0 30 -3
30 -30z m70 0 c0 -27 -3 -30 -30 -30 -27 0 -30 3 -30 30 0 27 3 30 30 30 27 0
30 -3 30 -30z m108 20 c17 0 22 -6 22 -25 0 -24 -3 -25 -60 -25 l-60 0 0 31
c0 31 1 31 38 25 20 -3 47 -6 60 -6z m92 -25 c0 -21 -5 -25 -30 -25 -25 0 -30
4 -30 25 0 21 5 25 30 25 25 0 30 -4 30 -25z m340 -35 l0 -60 -95 0 -95 0 0
30 c0 17 5 30 13 31 10 0 10 2 0 6 -7 2 -13 14 -13 24 0 16 6 20 28 17 23 -2
27 -7 25 -30 -1 -16 2 -28 8 -28 5 0 9 11 9 25 0 20 5 25 25 25 23 0 25 -4 26
-47 1 -38 3 -43 8 -23 5 14 6 40 3 58 -4 30 -3 32 27 32 l31 0 0 -60z m69 -36
l1 -95 -28 3 -27 3 -2 93 -1 92 28 0 28 0 1 -96z m71 72 c0 -16 -7 -26 -22
-30 -36 -9 -38 -8 -38 24 0 27 3 30 30 30 25 0 30 -4 30 -24z m44 9 c-25 -19
-34 -19 -34 0 0 10 10 15 27 15 26 0 26 -1 7 -15z m226 -16 c0 -22 -5 -29 -19
-29 -22 0 -101 40 -101 51 0 4 27 7 60 7 60 0 60 0 60 -29z m70 1 c0 -27 -3
-30 -30 -30 -27 0 -30 3 -30 30 0 27 3 30 30 30 27 0 30 -3 30 -30z m64 14
c13 -33 6 -44 -24 -44 -27 0 -30 3 -30 30 0 25 4 30 24 30 13 0 27 -7 30 -16z
m-814 -14 c0 -16 -7 -20 -30 -20 -23 0 -30 4 -30 20 0 16 7 20 30 20 23 0 30
-4 30 -20z m69 -35 c0 -54 0 -55 -29 -55 -27 0 -30 3 -30 30 0 24 4 30 23 31
l22 2 -22 4 c-15 3 -23 12 -23 24 0 14 7 19 29 19 28 0 29 -1 30 -55z m-1795
8 c3 -8 3 -20 -1 -26 -4 -6 0 -8 10 -4 10 3 17 2 17 -3 0 -6 -4 -10 -9 -10 -5
0 -12 -13 -16 -30 -8 -37 -21 -46 -42 -28 -9 7 -17 11 -17 10 -1 -4 -26 6 -93
35 -18 7 -35 18 -38 23 -4 6 -10 8 -15 5 -4 -3 -18 3 -31 13 l-22 19 44 5 c24
3 73 7 109 7 35 1 66 4 68 6 7 7 31 -7 36 -22z m976 -33 c0 -27 -3 -30 -30
-30 -27 0 -30 3 -30 30 0 27 3 30 30 30 27 0 30 -3 30 -30z m70 0 c0 -27 -3
-30 -30 -30 -27 0 -30 3 -30 30 0 27 3 30 30 30 27 0 30 -3 30 -30z m200 0 l0
-28 -95 0 -95 0 0 29 0 29 95 -1 95 -1 0 -28z m70 0 c0 -27 -3 -30 -30 -30
-27 0 -30 3 -30 30 0 27 3 30 30 30 27 0 30 -3 30 -30z m70 0 c0 -27 -3 -30
-30 -30 -27 0 -30 3 -30 30 0 27 3 30 30 30 27 0 30 -3 30 -30z m70 0 c0 -27
-3 -30 -30 -30 -27 0 -30 3 -30 30 0 27 3 30 30 30 27 0 30 -3 30 -30z m130
-1 c0 -29 0 -29 -60 -29 -60 0 -60 0 -60 29 0 29 0 29 60 29 60 0 60 0 60 -29z
m70 1 c0 -27 -3 -30 -30 -30 -27 0 -30 3 -30 30 0 27 3 30 30 30 27 0 30 -3
30 -30z m70 0 c0 -27 -3 -30 -30 -30 -27 0 -30 3 -30 30 0 27 3 30 30 30 27 0
30 -3 30 -30z m370 -5 c0 -14 -4 -25 -10 -25 -5 0 -10 11 -10 25 0 14 5 25 10
25 6 0 10 -11 10 -25z m310 -5 c0 -19 -5 -30 -14 -30 -20 0 -26 12 -19 38 8
33 33 27 33 -8z m70 0 c0 -27 -3 -30 -30 -30 -27 0 -30 3 -30 30 0 27 3 30 30
30 27 0 30 -3 30 -30z m70 0 c0 -27 -3 -30 -30 -30 -27 0 -30 3 -30 30 0 27 3
30 30 30 27 0 30 -3 30 -30z m40 -17 c0 -7 -7 -13 -15 -13 -10 0 -15 10 -15
33 1 30 1 31 15 13 8 -11 15 -26 15 -33z m-1610 -38 c0 -21 -5 -25 -30 -25
-25 0 -30 4 -30 25 0 21 5 25 30 25 25 0 30 -4 30 -25z m70 0 c0 -21 -5 -25
-30 -25 -25 0 -30 4 -30 25 0 21 5 25 30 25 25 0 30 -4 30 -25z m131 13 c0
-10 2 -10 6 0 2 6 18 12 34 12 24 0 29 -4 29 -25 0 -21 -5 -25 -30 -25 -17 0
-30 5 -30 13 0 8 -2 9 -8 1 -4 -6 -33 -12 -64 -12 -55 0 -58 1 -58 24 0 23 3
24 60 24 41 0 60 -4 61 -12z m139 -13 c0 -21 -5 -25 -30 -25 -25 0 -30 4 -30
25 0 21 5 25 30 25 25 0 30 -4 30 -25z m70 0 c0 -21 -5 -25 -30 -25 -25 0 -30
4 -30 25 0 21 5 25 30 25 25 0 30 -4 30 -25z m200 0 c0 -23 -2 -23 -95 -23
-93 0 -95 0 -95 23 0 23 2 23 95 23 93 0 95 0 95 -23z m70 0 c0 -21 -5 -25
-30 -25 -25 0 -30 4 -30 25 0 21 5 25 30 25 25 0 30 -4 30 -25z m70 0 c0 -21
-5 -25 -30 -25 -25 0 -30 4 -30 25 0 21 5 25 30 25 25 0 30 -4 30 -25z m70 0
c0 -21 -5 -25 -30 -25 -25 0 -30 4 -30 25 0 21 5 25 30 25 25 0 30 -4 30 -25z
m130 -6 l0 -29 -57 4 c-53 3 -58 5 -61 29 -3 24 -2 25 57 25 61 0 61 0 61 -29z
m70 1 c0 -25 -4 -30 -25 -30 -27 0 -41 20 -31 45 3 8 17 15 31 15 21 0 25 -5
25 -30z m100 -6 c0 -13 -4 -24 -10 -24 -5 0 -10 14 -10 31 0 17 4 28 10 24 6
-3 10 -17 10 -31z m150 22 c0 -11 -19 -15 -25 -6 -3 5 1 10 9 10 9 0 16 -2 16
-4z m160 -21 c0 -18 -5 -25 -20 -25 -15 0 -20 7 -20 25 0 18 5 25 20 25 15 0
20 -7 20 -25z m70 0 c0 -21 -5 -25 -30 -25 -25 0 -30 4 -30 25 0 21 5 25 30
25 25 0 30 -4 30 -25z m70 0 c0 -21 -5 -25 -30 -25 -25 0 -30 4 -30 25 0 21 5
25 30 25 25 0 30 -4 30 -25z m70 0 c0 -21 -5 -25 -30 -25 -25 0 -30 4 -30 25
0 21 5 25 30 25 25 0 30 -4 30 -25z m-4198 -32 c21 -19 23 -33 5 -57 -15 -20
-87 -34 -87 -17 0 6 5 11 11 11 6 0 3 8 -7 18 -17 16 -16 17 12 20 29 4 60 22
35 22 -7 0 -9 5 -6 10 9 14 16 13 37 -7z m2558 -28 c0 -21 -5 -25 -30 -25 -25
0 -30 4 -30 25 0 21 5 25 30 25 25 0 30 -4 30 -25z m71 8 c1 -16 2 -16 6 -1 3
12 17 16 64 16 l59 0 0 -49 c0 -48 -1 -49 -30 -49 -34 0 -41 23 -12 39 13 8 6
11 -33 12 -27 0 -65 0 -82 -1 -29 -1 -33 1 -33 24 0 22 4 26 30 26 21 0 30 -5
31 -17z m199 -39 c0 -54 0 -55 -27 -52 -26 3 -28 6 -30 56 -3 52 -2 52 27 52
30 0 30 -1 30 -56z m69 1 c-1 -53 -2 -55 -29 -55 -27 0 -28 2 -29 55 0 54 0
55 29 55 29 0 29 -1 29 -55z m66 -4 c0 -51 -1 -54 -27 -57 -28 -3 -28 -2 -28
57 0 60 0 60 28 57 26 -3 27 -6 27 -57z m203 27 c3 -24 0 -28 -23 -28 -17 0
-29 7 -35 23 l-9 22 0 -24 c-1 -21 -4 -23 -34 -18 -19 3 -40 1 -48 -4 -9 -6 2
-9 34 -9 43 0 47 -2 47 -24 0 -24 -3 -25 -60 -25 -57 1 -60 2 -60 25 0 13 6
24 13 25 10 0 10 2 0 6 -7 2 -13 17 -13 33 l0 28 93 -1 92 -2 3 -27z m72 -4
c0 -20 -5 -24 -30 -24 -25 0 -30 4 -30 23 0 31 5 35 35 29 18 -3 25 -11 25
-28z m70 1 c0 -21 -5 -25 -30 -25 -25 0 -30 4 -30 25 0 21 5 25 30 25 25 0 30
-4 30 -25z m200 0 c0 -25 0 -25 -95 -24 -94 1 -95 1 -95 25 0 24 1 24 95 24
95 0 95 0 95 -25z m70 0 c0 -21 -5 -25 -30 -25 -25 0 -30 4 -30 25 0 21 5 25
30 25 25 0 30 -4 30 -25z m70 0 c0 -21 -5 -25 -30 -25 -25 0 -30 4 -30 25 0
21 5 25 30 25 25 0 30 -4 30 -25z m45 9 c33 -22 31 -34 -5 -34 -25 0 -30 4
-30 25 0 29 3 30 35 9z m294 -76 c1 -63 -3 -94 -12 -100 -9 -6 -9 -8 1 -8 6 0
12 -11 12 -25 0 -21 -5 -25 -30 -25 -25 0 -30 4 -30 25 0 17 6 25 18 26 15 1
15 2 0 6 -14 3 -16 17 -15 84 1 43 5 79 9 79 4 0 8 7 8 15 0 8 9 15 19 15 18
0 19 -8 20 -92z m69 60 c3 -25 0 -28 -27 -28 -26 0 -31 4 -31 23 0 30 9 39 35
35 13 -2 21 -12 23 -30z m72 2 c0 -11 -6 -20 -14 -20 -8 0 -21 -3 -30 -6 -12
-5 -16 0 -16 20 0 22 4 26 30 26 23 0 30 -4 30 -20z m70 0 c0 -16 -7 -20 -30
-20 -23 0 -30 4 -30 20 0 16 7 20 30 20 23 0 30 -4 30 -20z m33 0 c3 -13 0
-20 -9 -20 -8 0 -14 9 -14 20 0 11 4 20 9 20 5 0 11 -9 14 -20z m-4323 -26 c0
-8 -4 -12 -10 -9 -5 3 -10 13 -10 21 0 8 5 12 10 9 6 -3 10 -13 10 -21z m4010
-23 l0 -39 -95 -1 -95 -1 0 30 c0 35 20 40 49 11 13 -13 22 -16 30 -8 5 5 18
11 28 13 33 4 63 16 63 25 0 5 5 9 10 9 6 0 10 -18 10 -39z m-1362 12 c2 -9
-7 -13 -27 -13 -21 0 -31 5 -31 16 0 19 51 16 58 -3z m132 -4 c0 -17 -6 -19
-47 -15 -27 2 -54 4 -60 5 -7 1 -13 7 -13 15 0 10 15 14 60 14 52 0 60 -2 60
-19z m480 -20 c0 -27 -3 -30 -27 -27 -22 2 -29 9 -31 31 -3 24 0 27 27 27 28
0 31 -3 31 -31z m70 1 c0 -27 -3 -30 -30 -30 -27 0 -30 3 -30 30 0 27 3 30 30
30 27 0 30 -3 30 -30z m70 0 c0 -27 -3 -30 -30 -30 -27 0 -30 3 -30 30 0 27 3
30 30 30 27 0 30 -3 30 -30z m200 1 l0 -29 -95 0 -95 0 0 28 0 28 95 1 95 1 0
-29z m70 -1 c0 -27 -3 -30 -30 -30 -27 0 -30 3 -30 30 0 27 3 30 30 30 27 0
30 -3 30 -30z m70 0 c0 -27 -3 -30 -30 -30 -27 0 -30 3 -30 30 0 27 3 30 30
30 27 0 30 -3 30 -30z m70 0 c0 -27 -3 -30 -30 -30 -27 0 -30 3 -30 30 0 27 3
30 30 30 27 0 30 -3 30 -30z m339 -70 l1 -90 -29 0 -29 0 0 90 1 90 27 0 28 0
1 -90z m59 65 c16 -35 16 -35 -18 -35 -27 0 -30 3 -30 30 0 38 32 41 48 5z
m-4221 -7 c-3 -8 -6 -5 -6 6 -1 11 2 17 5 13 3 -3 4 -12 1 -19z m268 -26 c-3
-3 -11 0 -18 7 -9 10 -8 11 6 5 10 -3 15 -9 12 -12z m3268 -9 c-7 -2 -21 -2
-30 0 -10 3 -4 5 12 5 17 0 24 -2 18 -5z m70 0 c-7 -2 -21 -2 -30 0 -10 3 -4
5 12 5 17 0 24 -2 18 -5z m77 -23 c0 -25 -4 -30 -25 -30 -25 0 -33 14 -15 25
15 10 12 23 -7 28 -10 3 -3 5 15 6 29 1 32 -2 32 -29z m70 0 c0 -27 -3 -30
-30 -30 -27 0 -30 3 -30 30 0 27 3 30 30 30 27 0 30 -3 30 -30z m70 0 c0 -27
-3 -30 -30 -30 -27 0 -30 3 -30 30 0 27 3 30 30 30 27 0 30 -3 30 -30z m200
-1 l0 -29 -95 0 -95 0 0 29 0 29 95 0 95 0 0 -29z m209 -34 c-1 -60 -5 -67
-37 -58 -19 5 -22 12 -22 59 0 53 0 54 30 54 29 0 29 -1 29 -55z m31 8 c0 -7
-4 -13 -10 -13 -5 0 -10 12 -10 28 0 21 2 24 10 12 5 -8 10 -21 10 -27z m-580
-38 c0 -21 -5 -25 -30 -25 -25 0 -30 4 -30 25 0 21 5 25 30 25 25 0 30 -4 30
-25z m70 0 c0 -21 -5 -25 -30 -25 -25 0 -30 4 -30 25 0 21 5 25 30 25 25 0 30
-4 30 -25z m200 0 c0 -24 -3 -25 -60 -25 -50 0 -60 3 -61 18 -1 16 -2 16 -6 0
-3 -12 -14 -18 -34 -18 -24 0 -29 4 -29 24 0 24 1 24 95 25 95 1 95 1 95 -24z
m70 0 c0 -21 -5 -25 -30 -25 -25 0 -30 4 -30 25 0 21 5 25 30 25 25 0 30 -4
30 -25z m264 -1 c10 -27 7 -34 -19 -34 -20 0 -25 5 -25 25 0 29 34 36 44 9z
m-678 -21 c-10 -10 -19 5 -10 18 6 11 8 11 12 0 2 -7 1 -15 -2 -18z m-1430 2
c8 -20 -19 -45 -50 -45 -21 0 -26 5 -26 24 0 19 6 26 28 29 15 2 31 5 35 6 4
0 10 -6 13 -14z m-576 -15 c0 -7 33 -10 94 -7 l94 4 4 -27 4 -28 -84 -6 c-46
-4 -87 -5 -90 -2 -3 3 4 6 16 6 14 0 22 6 22 16 0 15 -13 16 -117 8 -65 -4
-145 -8 -178 -8 -42 -1 -59 -5 -57 -13 1 -7 -4 -13 -10 -13 -7 0 -20 -5 -28
-10 -13 -9 -13 -11 0 -20 13 -8 15 -47 16 -245 1 -129 -2 -235 -6 -235 -4 0
-6 -14 -4 -31 3 -20 0 -28 -8 -23 -7 5 -8 3 -3 -7 5 -7 10 -32 11 -54 1 -22 3
-40 4 -40 8 0 6 -93 -3 -104 -10 -12 -9 -14 6 -8 11 4 17 2 17 -7 0 -8 -12
-16 -26 -19 -22 -4 -57 18 -205 130 -98 74 -182 139 -185 145 -5 7 -2 8 6 3
10 -6 12 -4 7 8 -3 10 -4 17 -1 17 3 0 78 -53 167 -118 188 -138 191 -140 185
-121 -3 8 1 32 7 54 7 22 10 48 6 57 -8 21 -377 278 -387 270 -4 -4 -4 -1 0 6
4 7 12 10 17 7 5 -4 9 -1 9 4 0 6 -6 11 -14 11 -8 0 -13 10 -13 25 0 14 2 25
6 25 3 0 89 -56 191 -124 102 -68 186 -122 188 -121 2 2 6 98 8 215 4 148 2
216 -6 225 -6 8 -12 28 -12 45 -1 23 -8 35 -28 45 -22 11 -26 19 -23 40 6 28
4 28 58 15 53 -13 165 -21 165 -12 0 4 31 7 70 7 42 0 74 5 82 13 15 15 28 16
28 2z m-723 -112 c-2 -24 -4 -7 -4 37 0 44 2 63 4 43 2 -21 2 -57 0 -80z
m-627 76 c0 -2 -9 0 -20 6 -11 6 -20 13 -20 16 0 2 9 0 20 -6 11 -6 20 -13 20
-16z m3360 -74 l0 -90 -30 0 -29 0 1 83 c1 45 3 85 5 90 2 4 15 7 29 7 24 0
24 -1 24 -90z m69 -35 l0 -125 -30 0 c-26 0 -29 3 -29 30 0 24 4 30 23 31 22
2 22 2 0 6 -20 4 -21 10 -21 94 l0 89 28 0 29 0 0 -125z m69 45 c-1 -44 2 -83
5 -87 7 -6 11 81 7 139 l-1 28 95 -1 c53 0 96 -4 96 -7 -2 -26 -29 -40 -79
-38 -29 0 -55 -2 -58 -6 -2 -5 19 -8 46 -8 40 0 51 -3 51 -16 0 -13 -3 -14
-13 -5 -11 8 -13 6 -13 -11 1 -15 -7 -24 -24 -29 -17 -5 -19 -7 -7 -8 17 -1
17 -2 1 -30 -11 -19 -23 -27 -32 -23 -12 4 -14 1 -9 -12 9 -24 -10 -56 -33
-56 -16 0 -20 7 -20 35 0 19 -4 35 -9 35 -6 0 -7 -16 -4 -35 5 -34 4 -35 -25
-35 l-30 0 -1 125 -1 125 29 0 30 0 -1 -80z m272 55 c0 -14 -4 -25 -8 -25 -5
0 -14 11 -20 25 -10 22 -9 25 8 25 15 0 20 -7 20 -25z m70 0 c0 -21 -5 -25
-30 -25 -25 0 -30 4 -30 25 0 21 5 25 30 25 25 0 30 -4 30 -25z m70 0 c0 -21
-5 -25 -30 -25 -25 0 -30 4 -30 25 0 21 5 25 30 25 25 0 30 -4 30 -25z m68 -2
c3 -20 -1 -23 -27 -23 -27 0 -31 4 -31 26 0 22 4 25 28 22 19 -2 28 -9 30 -25z
m94 4 c11 -17 10 -27 -2 -27 -5 0 -11 8 -11 18 -1 16 -2 16 -6 0 -3 -12 -14
-18 -34 -18 -24 0 -29 4 -29 26 0 24 2 25 37 19 20 -3 41 -11 45 -18z m-783
-92 l0 -65 -44 0 c-35 0 -43 3 -39 15 4 8 10 15 15 15 5 0 9 7 9 15 0 9 10 15
23 16 17 1 18 2 4 6 -16 4 -16 7 4 34 11 16 22 29 24 29 2 0 4 -29 4 -65z
m551 24 c0 -27 -3 -30 -27 -27 -22 2 -29 9 -31 31 -3 24 0 27 27 27 28 0 31
-3 31 -31z m70 1 c0 -27 -3 -30 -30 -30 -27 0 -30 3 -30 30 0 27 3 30 30 30
27 0 30 -3 30 -30z m70 0 c0 -27 -3 -30 -30 -30 -27 0 -30 3 -30 30 0 27 3 30
30 30 27 0 30 -3 30 -30z m126 -2 l15 -28 -66 0 -65 0 0 29 c0 29 1 30 51 29
45 -1 52 -5 65 -30z m-421 -8 c3 -6 -4 -10 -17 -10 -18 0 -20 2 -8 10 19 12
18 12 25 0z m-3000 -12 c14 -6 24 -16 22 -22 -3 -6 0 -19 5 -30 9 -16 6 -16
-31 5 -23 12 -41 27 -41 31 0 5 6 6 13 2 8 -5 8 -2 -2 9 -16 20 -3 22 34 5z
m3005 -43 c0 -18 -5 -25 -20 -25 -15 0 -20 7 -20 25 0 18 5 25 20 25 15 0 20
-7 20 -25z m150 -5 c0 -37 -13 -39 -28 -5 -16 34 -15 35 8 35 16 0 20 -7 20
-30z m70 0 c0 -27 -3 -30 -30 -30 -27 0 -30 3 -30 30 0 27 3 30 30 30 27 0 30
-3 30 -30z m71 8 l2 -23 4 22 c4 19 11 22 56 21 69 0 82 -4 101 -33 l17 -25
-121 1 -120 1 0 29 c0 26 4 29 30 29 24 0 30 -4 31 -22z m-3354 -121 c-2 -23
-3 -1 -3 48 0 50 1 68 3 42 2 -26 2 -67 0 -90z m-117 99 c0 -2 -8 -10 -17 -17
-16 -13 -17 -12 -4 4 13 16 21 21 21 13z m2780 -46 l0 -29 -65 0 c-36 0 -65 3
-65 7 0 4 7 17 15 28 11 17 26 22 65 23 49 1 50 0 50 -29z m70 0 c0 -27 -3
-30 -30 -30 -27 0 -30 3 -30 30 0 27 3 30 30 30 27 0 30 -3 30 -30z m326 5
c-3 -23 -16 -30 -16 -9 0 16 -2 17 -10 4 -8 -13 -10 -12 -10 3 0 10 8 17 19
17 11 0 18 -6 17 -15z m224 -16 c0 -27 -3 -30 -27 -27 -22 2 -29 9 -31 31 -3
24 0 27 27 27 28 0 31 -3 31 -31z m261 10 c19 -37 12 -39 -121 -38 l-130 1 0
28 0 29 121 -1 c104 -1 121 -4 130 -19z m-3457 3 c2 -4 1 -14 -4 -21 -6 -11
-10 -9 -19 8 -10 17 -9 21 3 21 8 0 17 -4 20 -8z m2507 -54 c0 -10 2 -10 6 0
2 6 18 12 34 12 26 0 29 -4 29 -30 0 -27 -3 -30 -30 -30 -21 0 -30 5 -31 18
-1 16 -2 16 -6 0 -3 -14 -15 -17 -59 -17 -30 1 -54 4 -54 8 0 4 7 17 16 29 11
16 25 22 55 22 24 0 39 -5 40 -12z m139 -18 c0 -27 -3 -30 -30 -30 -27 0 -30
3 -30 30 0 27 3 30 30 30 27 0 30 -3 30 -30z m70 0 c0 -27 -3 -30 -30 -30 -27
0 -30 3 -30 30 0 27 3 30 30 30 27 0 30 -3 30 -30z m66 19 c4 -8 9 -7 15 2 4
7 11 11 14 8 9 -9 -6 -40 -16 -33 -5 3 -9 -2 -9 -10 0 -11 -9 -16 -30 -16 -27
0 -30 3 -30 30 0 25 4 30 24 30 14 0 28 -5 32 -11z m-2498 -53 c0 -25 -1 -25
-29 -10 -29 15 -39 34 -18 34 8 0 7 6 -2 17 -13 15 -12 15 17 0 23 -12 32 -23
32 -41z m2912 24 c0 -37 -13 -39 -28 -5 -16 34 -15 35 8 35 16 0 20 -7 20 -30z
m270 0 l0 -28 -130 0 -130 0 0 28 0 29 130 0 130 0 0 -29z m-2747 13 c-7 -2
-21 -2 -30 0 -10 3 -4 5 12 5 17 0 24 -2 18 -5z m2787 -35 c0 -4 -7 -8 -15 -8
-10 0 -15 10 -15 28 1 26 1 26 15 8 8 -11 15 -23 15 -28z m-2960 10 c0 -19 -2
-20 -10 -8 -13 19 -13 30 0 30 6 0 10 -10 10 -22z m1960 -42 c0 -24 -2 -25
-75 -23 -41 1 -75 3 -75 4 0 2 8 12 17 23 14 16 30 20 75 20 55 0 58 -1 58
-24z m70 -1 c0 -21 -5 -25 -30 -25 -25 0 -30 4 -30 25 0 21 5 25 30 25 25 0
30 -4 30 -25z m70 0 c0 -21 -5 -25 -30 -25 -25 0 -30 4 -30 25 0 21 5 25 30
25 25 0 30 -4 30 -25z m70 0 c0 -21 -5 -25 -30 -25 -25 0 -30 4 -30 25 0 21 5
25 30 25 25 0 30 -4 30 -25z m53 18 c8 -7 -21 -43 -35 -43 -4 0 -8 11 -8 25 0
18 5 25 18 25 10 0 22 -3 25 -7z m697 -28 l0 -24 -127 2 c-125 2 -128 3 -131
25 -3 22 -3 22 127 21 131 -1 131 -1 131 -24z m60 6 c15 -28 13 -31 -20 -31
-25 0 -30 4 -30 25 0 31 34 35 50 6z m-3242 -41 c-1 -16 -6 -30 -10 -30 -4 0
-8 14 -8 30 0 17 5 30 10 30 6 0 9 -13 8 -30z m472 -10 c0 -5 -5 -10 -11 -10
-5 0 -7 5 -4 10 3 6 8 10 11 10 2 0 4 -4 4 -10z m1750 -55 c0 -54 0 -55 -30
-55 -17 0 -30 5 -31 13 0 10 -2 10 -6 0 -3 -9 -32 -13 -95 -13 -81 0 -89 2
-77 16 10 13 10 17 -2 25 -10 6 -7 9 14 9 19 0 27 -5 27 -17 0 -9 3 -14 6 -10
4 3 6 24 6 47 l-1 40 95 0 94 0 0 -55z m69 0 c0 -54 -1 -55 -29 -55 -28 0 -28
1 -28 55 1 53 1 55 29 55 27 0 28 -1 28 -55z m68 -15 c-1 -38 -5 -70 -10 -70
-4 0 -3 -9 3 -20 7 -14 7 -20 0 -20 -5 0 -10 6 -11 13 0 10 -2 10 -6 0 -2 -7
-11 -13 -18 -13 -10 0 -13 21 -13 90 l0 90 29 0 29 0 -3 -70z m73 64 c0 -18
-24 -44 -40 -44 -15 0 -20 7 -20 25 0 21 5 25 30 25 17 0 30 -3 30 -6z m90 -2
c0 -4 -15 -8 -32 -7 -18 0 -36 -4 -40 -10 -4 -6 -8 -2 -8 8 0 13 9 17 40 17
22 0 40 -4 40 -8z m40 -2 c0 -5 -7 -10 -15 -10 -8 0 -15 5 -15 10 0 6 7 10 15
10 8 0 15 -4 15 -10z m60 0 c0 -5 -7 -10 -15 -10 -8 0 -15 5 -15 10 0 6 7 10
15 10 8 0 15 -4 15 -10z m150 0 c0 -5 -11 -10 -25 -10 -14 0 -25 5 -25 10 0 6
11 10 25 10 14 0 25 -4 25 -10z m65 0 c4 -6 -7 -10 -25 -10 -18 0 -29 4 -25
10 3 6 15 10 25 10 10 0 22 -4 25 -10z m58 -7 c-7 -2 -21 -2 -30 0 -10 3 -4 5
12 5 17 0 24 -2 18 -5z m217 -18 c0 -19 -6 -25 -22 -26 -23 -2 -23 -2 -1 -6
20 -4 21 -10 22 -99 1 -93 1 -94 -23 -94 -22 0 -36 16 -36 41 0 5 10 14 23 19
l22 9 -22 0 c-17 1 -23 7 -24 24 l-2 22 -4 -22 c-5 -24 -22 -32 -24 -10 0 10
-2 10 -6 0 -7 -18 -23 -16 -23 2 0 8 5 15 11 15 5 0 8 4 4 9 -3 6 3 14 12 20
16 9 16 10 -3 11 -25 0 -37 24 -29 51 4 13 1 19 -9 19 -8 0 -19 6 -23 14 -4 7
-15 16 -23 19 -8 3 29 6 83 6 l97 1 0 -25z m70 0 c0 -21 -5 -25 -30 -25 -25 0
-30 4 -30 25 0 21 5 25 30 25 25 0 30 -4 30 -25z m70 0 c0 -21 -5 -25 -30 -25
-25 0 -30 4 -30 25 0 21 5 25 30 25 25 0 30 -4 30 -25z m40 -17 c0 -4 -7 -8
-15 -8 -10 0 -15 10 -15 28 1 26 1 26 15 8 8 -11 15 -23 15 -28z m-610 22 c0
-5 -8 -10 -17 -10 -15 0 -16 2 -3 10 19 12 20 12 20 0z m-2684 -36 c-4 -9 -9
-15 -11 -12 -3 3 -3 13 1 22 4 9 9 15 11 12 3 -3 3 -13 -1 -22z m2393 -11 c-7
-10 -15 -20 -16 -22 -2 -2 -3 5 -3 17 0 14 6 22 16 22 14 0 15 -3 3 -17z m298
-14 c1 -13 -5 -19 -18 -19 -13 0 -19 7 -19 24 0 18 4 23 18 19 10 -2 18 -13
19 -24z m-60 -11 c-3 -7 -5 -2 -5 12 0 14 2 19 5 13 2 -7 2 -19 0 -25z m553 1
c0 -27 -3 -30 -27 -27 -22 2 -29 9 -31 31 -3 24 0 27 27 27 28 0 31 -3 31 -31z
m70 1 c0 -27 -3 -30 -30 -30 -27 0 -30 3 -30 30 0 27 3 30 30 30 27 0 30 -3
30 -30z m60 11 c16 -32 12 -41 -20 -41 -27 0 -30 3 -30 30 0 23 4 30 20 30 10
0 24 -9 30 -19z m-3670 -35 c0 -2 -7 -9 -15 -16 -12 -10 -15 -10 -15 4 0 9 7
16 15 16 8 0 15 -2 15 -4z m2509 -62 l0 -64 -30 0 c-20 0 -29 5 -30 18 -1 16
-2 16 -6 0 -4 -15 -16 -18 -64 -18 -59 0 -59 0 -59 29 0 30 0 30 60 30 39 -1
60 -5 60 -12 0 -9 2 -9 8 -1 4 7 16 14 27 17 11 2 -19 5 -67 6 l-88 1 0 29 0
29 94 0 95 0 0 -64z m71 36 c0 -27 -3 -30 -30 -30 -27 0 -30 3 -30 30 0 27 3
30 30 30 27 0 30 -3 30 -30z m70 0 c0 -27 -3 -30 -30 -30 -27 0 -30 3 -30 30
0 27 3 30 30 30 27 0 30 -3 30 -30z m193 13 c-7 -2 -21 -2 -30 0 -10 3 -4 5
12 5 17 0 24 -2 18 -5z m74 1 c-3 -3 -12 -4 -19 -1 -8 3 -5 6 6 6 11 1 17 -2
13 -5z m123 -5 c0 -6 -7 -17 -15 -25 -13 -14 -15 -13 -15 10 0 16 6 26 15 26
8 0 15 -5 15 -11z m73 4 c-7 -2 -19 -2 -25 0 -7 3 -2 5 12 5 14 0 19 -2 13 -5z
m70 0 c-7 -2 -21 -2 -30 0 -10 3 -4 5 12 5 17 0 24 -2 18 -5z m60 0 c-7 -2
-19 -2 -25 0 -7 3 -2 5 12 5 14 0 19 -2 13 -5z m297 -33 c0 -24 -4 -30 -22
-31 l-23 -2 22 -4 c20 -4 22 -10 22 -64 -1 -59 -1 -59 -30 -59 -24 0 -29 4
-29 25 0 17 7 29 23 35 22 9 22 9 1 9 -20 1 -22 6 -22 61 0 60 0 60 29 60 26
0 29 -4 29 -30z m70 0 c0 -27 -3 -30 -30 -30 -27 0 -30 3 -30 30 0 27 3 30 30
30 27 0 30 -3 30 -30z m70 0 c0 -27 -3 -30 -30 -30 -27 0 -30 3 -30 30 0 27 3
30 30 30 27 0 30 -3 30 -30z m-930 5 c0 -8 -4 -15 -10 -15 -5 0 -10 7 -10 15
0 8 5 15 10 15 6 0 10 -7 10 -15z m30 0 c0 -8 -4 -15 -10 -15 -5 0 -10 7 -10
15 0 8 5 15 10 15 6 0 10 -7 10 -15z m44 4 c10 16 26 14 26 -4 0 -9 -9 -15
-25 -15 -17 0 -25 5 -25 18 0 13 2 14 9 3 6 -9 11 -10 15 -2z m53 -11 c-3 -8
-6 -5 -6 6 -1 11 2 17 5 13 3 -3 4 -12 1 -19z m43 7 c0 -8 -7 -15 -15 -15 -8
0 -15 7 -15 15 0 8 7 15 15 15 8 0 15 -7 15 -15z m60 -6 c0 -5 -7 -9 -15 -9
-15 0 -20 12 -9 23 8 8 24 -1 24 -14z m148 -2 c3 -12 -4 -17 -22 -17 -19 0
-26 5 -26 18 0 24 44 23 48 -1z m62 3 c0 -15 -7 -20 -25 -20 -32 0 -34 27 -2
33 12 2 23 5 25 6 1 0 2 -8 2 -19z m523 -10 c3 -13 0 -20 -9 -20 -8 0 -14 10
-14 26 0 28 15 25 23 -6z m-1403 10 c0 -5 -4 -10 -10 -10 -5 0 -10 5 -10 10 0
6 5 10 10 10 6 0 10 -4 10 -10z m950 -5 c0 -9 -9 -15 -25 -15 -16 0 -25 6 -25
15 0 9 9 15 25 15 16 0 25 -6 25 -15z m60 0 c0 -8 -9 -15 -20 -15 -11 0 -20 7
-20 15 0 8 9 15 20 15 11 0 20 -7 20 -15z m-1010 -45 c0 -27 -3 -30 -30 -30
-34 0 -36 6 -14 38 22 32 44 28 44 -8z m270 0 c0 -27 -3 -30 -30 -30 -27 0
-30 3 -30 30 0 27 3 30 30 30 27 0 30 -3 30 -30z m70 16 c0 -30 -13 -46 -36
-46 -20 0 -24 5 -24 30 0 27 3 30 30 30 19 0 30 -5 30 -14z m267 -2 c-3 -3
-12 -4 -19 -1 -8 3 -5 6 6 6 11 1 17 -2 13 -5z m-2207 -8 c0 -11 -19 -15 -25
-6 -3 5 1 10 9 10 9 0 16 -2 16 -4z m2900 -26 c0 -27 -3 -30 -30 -30 -27 0
-30 3 -30 30 0 27 3 30 30 30 27 0 30 -3 30 -30z m70 0 c0 -27 -3 -30 -30 -30
-27 0 -30 3 -30 30 0 27 3 30 30 30 27 0 30 -3 30 -30z m54 14 c12 -31 6 -44
-19 -44 -21 0 -25 5 -25 30 0 23 5 30 19 30 10 0 22 -7 25 -16z m-4364 -4 c0
-5 -8 -10 -17 -10 -15 0 -16 2 -3 10 19 12 20 12 20 0z m2941 -52 l2 -23 4 23
c4 20 10 22 64 22 59 0 59 0 59 -29 l0 -30 -82 1 c-87 0 -108 8 -108 39 0 14
7 19 30 19 24 0 30 -4 31 -22z m199 -8 c0 -27 -3 -30 -30 -30 -27 0 -30 3 -30
30 0 27 3 30 30 30 27 0 30 -3 30 -30z m70 0 c0 -27 -3 -30 -30 -30 -27 0 -30
3 -30 30 0 27 3 30 30 30 27 0 30 -3 30 -30z m40 21 c0 -5 -7 -14 -15 -21 -13
-10 -15 -9 -15 9 0 12 6 21 15 21 8 0 15 -4 15 -9z m850 -31 c0 -36 -13 -39
-28 -6 -11 25 -7 36 15 36 8 0 13 -12 13 -30z m140 -11 c0 -26 -3 -31 -20 -26
-11 3 -20 1 -20 -4 0 -5 9 -9 20 -9 13 0 20 -7 20 -20 0 -15 -7 -20 -29 -20
-28 0 -28 1 -29 55 0 54 0 55 29 55 26 0 29 -3 29 -31z m70 1 c0 -27 -3 -30
-30 -30 -27 0 -30 3 -30 30 0 27 3 30 30 30 27 0 30 -3 30 -30z m70 0 c0 -27
-3 -30 -30 -30 -27 0 -30 3 -30 30 0 27 3 30 30 30 27 0 30 -3 30 -30z m-2411
-34 c6 -7 21 -12 34 -11 12 1 14 0 5 -2 -12 -3 -18 -14 -18 -32 0 -15 -4 -32
-10 -39 -7 -9 -7 -9 2 -2 7 6 23 9 38 9 23 -2 23 -2 3 -6 -28 -5 -30 -23 -4
-23 11 0 23 -5 27 -12 5 -7 2 -9 -8 -6 -8 4 -21 2 -28 -2 -10 -6 -7 -10 12
-15 14 -4 31 -18 37 -32 11 -24 11 -25 -21 -18 -18 4 -40 9 -50 11 -9 3 -19 0
-23 -6 -10 -16 -28 -12 -21 5 3 8 1 15 -4 15 -6 0 -10 -4 -10 -10 0 -5 -4 -10
-9 -10 -11 0 -5 72 11 122 6 21 16 35 21 31 6 -3 7 -1 3 5 -16 27 -35 10 -51
-45 -21 -74 -23 -81 -24 -63 -1 27 29 113 46 132 19 22 27 22 42 4z m1031 -11
c0 -31 -14 -32 -50 -2 l-28 24 39 1 c35 2 39 -1 39 -23z m70 -1 c0 -22 -4 -25
-27 -22 -20 2 -29 9 -31 26 -3 19 1 22 27 22 27 0 31 -4 31 -26z m70 1 c0 -21
-5 -25 -30 -25 -25 0 -30 4 -30 25 0 21 5 25 30 25 25 0 30 -4 30 -25z m54 0
c-9 -14 -23 -25 -30 -25 -8 0 -14 10 -14 25 0 21 5 25 30 25 30 0 30 0 14 -25z
m-3193 -3 c-7 -2 -18 1 -23 6 -8 8 -4 9 13 5 13 -4 18 -8 10 -11z m1385 -4
c-9 -5 -31 -7 -49 -5 -31 4 -31 4 6 5 20 1 37 7 37 13 0 5 5 7 11 3 8 -5 6
-10 -5 -16z m44 12 c0 -5 -5 -10 -11 -10 -5 0 -7 5 -4 10 3 6 8 10 11 10 2 0
4 -4 4 -10z m2740 -15 c0 -21 -5 -25 -30 -25 -22 0 -30 5 -30 18 0 25 9 32 37
32 18 0 23 -5 23 -25z m-4123 9 c-3 -3 -12 -4 -19 -1 -8 3 -5 6 6 6 11 1 17
-2 13 -5z m3960 -16 c-3 -8 -6 -5 -6 6 -1 11 2 17 5 13 3 -3 4 -12 1 -19z
m303 3 c0 -11 -5 -23 -10 -26 -18 -11 -50 6 -50 26 0 14 7 19 30 19 23 0 30
-5 30 -19z m70 -6 c0 -21 -5 -25 -30 -25 -25 0 -30 4 -30 25 0 21 5 25 30 25
25 0 30 -4 30 -25z m-3315 -4 c-3 -6 -11 -11 -16 -11 -5 0 -4 6 3 14 14 16 24
13 13 -3z m960 -11 c-3 -5 -10 -10 -16 -10 -5 0 -9 5 -9 10 0 6 7 10 16 10 8
0 12 -4 9 -10z m1045 -45 c0 -14 -1 -25 -3 -25 -2 0 -14 11 -27 25 l-23 25 26
0 c22 0 27 -5 27 -25z m70 11 c0 -20 -27 -39 -45 -32 -8 3 -15 15 -15 26 0 16
7 20 30 20 19 0 30 -5 30 -14z m1030 -17 c0 -24 -23 -21 -28 4 -2 10 3 17 12
17 10 0 16 -9 16 -21z m55 11 c18 -7 18 -9 -9 -19 -32 -13 -41 -9 -33 14 7 17
13 17 42 5z m-1320 -18 c-3 -3 -11 0 -18 7 -9 10 -8 11 6 5 10 -3 15 -9 12
-12z m-2171 -21 c3 -5 0 -11 -8 -14 -8 -3 -17 1 -20 9 -6 15 19 20 28 5z m456
-30 c0 -22 -4 -43 -10 -46 -6 -4 -10 12 -10 39 0 25 5 46 10 46 6 0 10 -18 10
-39z m-50 -33 c0 -42 -3 -49 -16 -44 -9 3 -19 6 -23 6 -5 0 -6 12 -3 27 5 25
6 25 13 8 5 -14 8 -8 8 23 1 26 5 41 11 37 6 -3 10 -29 10 -57z m1970 58 c0
-11 -19 -15 -25 -6 -3 5 1 10 9 10 9 0 16 -2 16 -4z m-2390 -56 c0 -5 -7 -7
-15 -4 -8 4 -15 8 -15 10 0 2 7 4 15 4 8 0 15 -4 15 -10z m1330 -30 c12 -7 8
-10 -15 -10 l-30 -1 33 -14 c30 -13 32 -16 19 -30 -18 -18 -153 -15 -151 4 2
27 5 31 32 45 31 17 90 20 112 6z m-1400 -90 c11 -11 27 -20 35 -20 8 0 15 -7
15 -15 0 -8 13 -21 30 -30 32 -16 54 -48 42 -60 -4 -4 36 -5 89 -2 78 4 102 2
135 -13 21 -10 42 -16 46 -14 5 3 8 -1 8 -9 0 -7 -12 -19 -27 -26 l-26 -12 32
-20 c37 -23 57 -24 76 -5 12 12 12 18 0 43 -20 41 -23 79 -6 75 7 -1 20 3 28
10 13 10 14 3 11 -55 -2 -56 0 -67 12 -65 15 3 16 7 19 48 0 11 6 20 11 20 6
0 10 -6 9 -12 -1 -7 1 -21 6 -31 6 -14 10 -15 21 -6 11 9 14 7 14 -11 0 -25
-25 -49 -52 -50 -10 0 -18 5 -18 12 0 7 -5 6 -12 -4 -7 -9 -20 -18 -28 -21 -8
-2 28 -5 81 -6 53 0 104 -3 113 -7 9 -3 16 -1 16 5 0 17 30 13 36 -4 4 -10 19
-15 48 -14 23 1 52 -3 64 -10 24 -13 67 -17 265 -27 106 -6 127 -4 124 7 -2 8
1 5 6 -6 8 -17 18 -20 76 -19 66 2 192 -12 138 -15 -16 0 -26 -5 -23 -9 2 -4
-20 -12 -50 -18 -42 -8 -54 -7 -54 3 0 7 7 10 16 6 11 -4 15 -2 13 6 -3 7 -8
12 -12 12 -4 -1 -14 -1 -22 -1 -8 0 -12 -6 -10 -12 4 -10 -10 -13 -52 -13 -32
0 -60 3 -63 6 -3 3 -18 -2 -34 -12 -21 -13 -26 -19 -15 -23 40 -13 41 -15 9
-16 -142 -2 -197 10 -206 47 -6 21 -12 24 -48 23 -74 -3 -94 0 -110 16 -9 8
-16 13 -16 9 0 -4 -7 0 -15 9 -12 12 -22 13 -41 6 -14 -6 -35 -10 -47 -9 -21
0 -21 1 -2 8 24 10 -73 27 -208 36 -77 6 -91 4 -123 -14 -41 -25 -79 -27 -125
-6 -28 12 -30 14 -11 15 28 0 29 17 1 25 -17 6 -18 9 -8 16 20 12 4 22 -18 11
-10 -5 -47 -12 -83 -15 -36 -2 -58 -3 -50 -1 8 3 25 20 37 38 l22 34 -45 12
c-24 7 -42 15 -40 18 3 2 19 0 36 -6 29 -11 30 -10 24 13 -4 18 -1 27 10 31
14 5 12 9 -11 24 -15 9 -41 30 -57 46 -27 27 -29 27 -24 6 4 -13 1 -25 -6 -30
-7 -4 -16 -14 -19 -22 -3 -8 -6 8 -6 37 -1 28 -4 58 -7 67 -9 24 31 21 56 -4z
m1009 -36 c17 -4 31 -13 31 -20 0 -8 5 -14 11 -14 5 0 8 -4 4 -10 -3 -5 -12
-7 -20 -3 -11 4 -13 1 -9 -11 3 -9 1 -16 -6 -16 -17 0 -37 -23 -33 -37 3 -9
-5 -9 -32 -2 -20 6 -43 8 -51 5 -8 -3 -3 10 12 29 14 19 31 32 36 29 6 -4 5 3
-1 15 -20 37 -4 47 58 35z m879 -11 c-10 -2 -26 -2 -35 0 -10 3 -2 5 17 5 19
0 27 -2 18 -5z m59 1 c-3 -3 -12 -4 -19 -1 -8 3 -5 6 6 6 11 1 17 -2 13 -5z
m-1772 -63 c-2 -2 -11 3 -19 12 -8 8 -12 17 -9 21 3 3 12 -2 19 -12 7 -9 11
-19 9 -21z m510 9 c14 -6 3 -9 -40 -9 -33 0 -67 4 -75 9 -19 12 86 12 115 0z
m-1080 -30 l20 -25 -22 19 c-13 11 -23 24 -23 29 0 6 1 8 3 6 1 -2 11 -15 22
-29z m1268 23 c-7 -2 -19 -2 -25 0 -7 3 -2 5 12 5 14 0 19 -2 13 -5z m-1288
-43 c3 -6 -1 -7 -9 -4 -18 7 -21 14 -7 14 6 0 13 -4 16 -10z m1355 -25 c15
-18 13 -20 -20 -35 -21 -9 -18 -10 23 -6 26 2 47 0 47 -4 0 -5 8 -10 18 -12
22 -6 -52 -28 -91 -28 -20 0 -26 4 -21 13 6 9 4 9 -8 -1 -22 -18 -84 -2 -82
21 2 16 -47 34 -64 23 -4 -2 -14 -1 -22 5 -10 6 5 9 45 9 37 0 68 6 79 15 26
19 80 19 96 0z m2287 -45 c56 0 103 -3 103 -7 0 -5 -15 -7 -33 -7 -17 1 -105
2 -194 3 -116 1 -163 4 -163 12 0 9 25 10 92 5 50 -3 138 -6 195 -6z m-1961
-16 c-3 -9 -6 -22 -6 -30 0 -8 -9 -14 -20 -14 -23 0 -27 29 -8 48 18 18 41 15
34 -4z m-2032 -40 c9 -23 7 -62 -3 -68 -14 -9 -21 6 -10 25 7 13 6 19 -1 19
-6 0 -8 5 -5 10 3 6 1 10 -4 10 -6 0 -11 5 -11 10 0 16 27 11 34 -6z m-194
-28 c0 -16 -37 -28 -46 -15 -4 7 19 22 44 28 1 1 2 -5 2 -13z m449 -36 c52
-10 98 -17 102 -14 4 2 10 0 13 -5 5 -8 52 -21 96 -27 27 -3 65 -29 68 -46 2
-15 -13 -16 -165 -11 -93 3 -172 9 -177 14 -5 4 2 13 17 20 34 15 35 35 2 41
-13 3 -22 2 -20 -2 3 -4 -8 -7 -24 -6 -24 1 -28 4 -20 18 9 17 -6 37 -18 24
-4 -3 -1 -6 6 -6 7 0 9 -5 5 -11 -4 -8 -9 -7 -15 2 -22 35 -3 37 130 9z m572
9 c-16 -6 -28 -6 -35 1 -7 7 1 10 25 9 32 0 33 -1 10 -10z m319 -10 c0 -4 -9
-13 -20 -19 -17 -9 -20 -8 -20 14 0 19 4 23 20 19 11 -3 20 -9 20 -14z m-500
-39 c0 -5 -5 -10 -11 -10 -5 0 -7 5 -4 10 3 6 8 10 11 10 2 0 4 -4 4 -10z
m122 -9 c7 5 29 8 48 8 l35 -1 -30 -9 c-47 -15 -154 -18 -148 -4 3 8 17 10 43
5 21 -4 45 -3 52 1z m368 5 c0 -2 -7 -6 -15 -10 -8 -3 -15 -1 -15 4 0 6 7 10
15 10 8 0 15 -2 15 -4z m430 -17 c0 -5 -7 -9 -15 -9 -8 0 -15 7 -15 15 0 9 6
12 15 9 8 -4 15 -10 15 -15z m-906 -18 c7 -10 -33 -23 -47 -14 -10 6 11 23 30
23 6 0 14 -4 17 -9z m-646 -18 c-7 -9 -5 -14 8 -19 11 -3 30 -10 43 -15 13 -5
32 -7 43 -3 20 6 68 -19 68 -36 0 -13 -47 -6 -95 14 -22 10 -59 21 -83 24 -40
7 -42 8 -28 27 8 12 23 21 35 21 15 0 17 -3 9 -13z m1532 -23 c0 -5 -5 -10
-11 -10 -5 0 -7 5 -4 10 3 6 8 10 11 10 2 0 4 -4 4 -10z m-783 -6 c-3 -3 -12
-4 -19 -1 -8 3 -5 6 6 6 11 1 17 -2 13 -5z m-806 -115 c9 -4 41 -5 71 -2 40 4
68 1 102 -12 73 -28 59 -41 -44 -41 -55 -1 -95 -5 -102 -12 -9 -9 -9 -12 0
-12 16 0 15 -32 -2 -55 -13 -18 -15 -18 -31 -2 -16 16 -15 18 3 25 18 6 19 9
7 26 -10 14 -21 17 -40 12 -16 -4 -25 -12 -22 -20 3 -8 -8 -13 -36 -15 l-40
-2 22 19 c22 17 22 19 6 35 -9 9 -31 17 -48 17 l-32 0 34 29 c31 27 39 29 85
24 28 -3 58 -9 67 -14z m-271 -99 c0 -5 -5 -10 -11 -10 -5 0 -7 5 -4 10 3 6 8
10 11 10 2 0 4 -4 4 -10z"/>
<path d="M3687 4750 c6 -22 28 -27 39 -9 3 6 0 15 -7 20 -24 15 -37 10 -32
-11z"/>
<path d="M3810 4756 c0 -8 5 -18 10 -21 6 -3 10 1 10 9 0 8 -4 18 -10 21 -5 3
-10 -1 -10 -9z"/>
<path d="M3772 4468 c-14 -14 -16 -38 -3 -38 11 0 24 19 27 38 3 15 -8 16 -24
0z"/>
<path d="M1013 4307 c-4 -7 -9 -33 -11 -59 -3 -39 -1 -46 15 -45 12 1 19 -6
21 -20 3 -18 -2 -23 -17 -23 -24 0 -28 -18 -6 -26 22 -9 42 12 39 38 -1 13 -3
48 -3 79 -1 40 -5 59 -16 62 -8 4 -18 1 -22 -6z"/>
<path d="M2521 4094 c0 -11 3 -14 6 -6 3 7 2 16 -1 19 -3 4 -6 -2 -5 -13z"/>
<path d="M1995 3710 c3 -5 11 -10 16 -10 6 0 7 5 4 10 -3 6 -11 10 -16 10 -6
0 -7 -4 -4 -10z"/>
<path d="M1381 3124 c0 -11 3 -14 6 -6 3 7 2 16 -1 19 -3 4 -6 -2 -5 -13z"/>
<path d="M1270 3110 c0 -11 2 -20 4 -20 2 0 6 9 9 20 3 11 1 20 -4 20 -5 0 -9
-9 -9 -20z"/>
<path d="M1270 3070 c0 -5 5 -10 11 -10 5 0 7 5 4 10 -3 6 -8 10 -11 10 -2 0
-4 -4 -4 -10z"/>
<path d="M1381 3014 c0 -11 3 -14 6 -6 3 7 2 16 -1 19 -3 4 -6 -2 -5 -13z"/>
<path d="M1325 3010 c3 -5 8 -10 11 -10 2 0 4 5 4 10 0 6 -5 10 -11 10 -5 0
-7 -4 -4 -10z"/>
<path d="M1325 2960 c-3 -5 -1 -10 4 -10 6 0 11 5 11 10 0 6 -2 10 -4 10 -3 0
-8 -4 -11 -10z"/>
<path d="M1430 2959 c0 -5 5 -7 10 -4 6 3 10 8 10 11 0 2 -4 4 -10 4 -5 0 -10
-5 -10 -11z"/>
<path d="M3641 3084 c0 -11 3 -14 6 -6 3 7 2 16 -1 19 -3 4 -6 -2 -5 -13z"/>
<path d="M3701 3084 c0 -11 3 -14 6 -6 3 7 2 16 -1 19 -3 4 -6 -2 -5 -13z"/>
<path d="M3630 3050 c0 -5 5 -10 10 -10 6 0 10 5 10 10 0 6 -4 10 -10 10 -5 0
-10 -4 -10 -10z"/>
<path d="M3700 3044 c0 -8 5 -12 10 -9 6 3 10 10 10 16 0 5 -4 9 -10 9 -5 0
-10 -7 -10 -16z"/>
<path d="M3598 2983 c7 -3 16 -2 19 1 4 3 -2 6 -13 5 -11 0 -14 -3 -6 -6z"/>
<path d="M3630 2980 c0 -5 5 -10 10 -10 6 0 10 5 10 10 0 6 -4 10 -10 10 -5 0
-10 -4 -10 -10z"/>
<path d="M3900 2570 c0 -5 5 -10 10 -10 6 0 10 5 10 10 0 6 -4 10 -10 10 -5 0
-10 -4 -10 -10z"/>
<path d="M4235 2430 c3 -5 10 -10 16 -10 5 0 9 5 9 10 0 6 -7 10 -16 10 -8 0
-12 -4 -9 -10z"/>
<path d="M4310 2430 c0 -5 5 -10 10 -10 6 0 10 5 10 10 0 6 -4 10 -10 10 -5 0
-10 -4 -10 -10z"/>
<path d="M4030 1680 c0 -5 5 -10 10 -10 6 0 10 5 10 10 0 6 -4 10 -10 10 -5 0
-10 -4 -10 -10z"/>
<path d="M3550 1340 c0 -5 5 -10 10 -10 6 0 10 5 10 10 0 6 -4 10 -10 10 -5 0
-10 -4 -10 -10z"/>
<path d="M3620 1328 c0 -19 2 -20 10 -8 13 19 13 30 0 30 -5 0 -10 -10 -10
-22z"/>
<path d="M4510 1330 c0 -5 5 -10 10 -10 6 0 10 5 10 10 0 6 -4 10 -10 10 -5 0
-10 -4 -10 -10z"/>
<path d="M4510 1260 c0 -5 5 -10 10 -10 6 0 10 5 10 10 0 6 -4 10 -10 10 -5 0
-10 -4 -10 -10z"/>
<path d="M2416 948 c3 -4 9 -8 15 -8 5 0 9 4 9 8 0 5 -7 9 -15 9 -8 0 -12 -4
-9 -9z"/>
<path d="M2436 901 c-4 -5 3 -7 14 -4 23 6 26 13 6 13 -8 0 -17 -4 -20 -9z"/>
<path d="M2495 880 c3 -5 10 -10 16 -10 5 0 9 5 9 10 0 6 -7 10 -16 10 -8 0
-12 -4 -9 -10z"/>
<path d="M1095 730 c3 -5 8 -10 11 -10 2 0 4 5 4 10 0 6 -5 10 -11 10 -5 0 -7
-4 -4 -10z"/>
<path d="M1463 563 c9 -2 23 -2 30 0 6 3 -1 5 -18 5 -16 0 -22 -2 -12 -5z"/>
<path d="M628 343 c6 -2 18 -2 25 0 6 3 1 5 -13 5 -14 0 -19 -2 -12 -5z"/>
<path d="M245 120 c-4 -7 3 -8 22 -4 38 9 42 14 10 14 -14 0 -29 -5 -32 -10z"/>
<path d="M80 240 c0 -5 -10 -10 -22 -12 -22 -3 -21 -4 6 -21 27 -18 28 -18 22
1 -5 15 -2 21 11 24 17 3 17 4 1 10 -10 4 -18 3 -18 -2z"/>
<path d="M210 221 c0 -12 28 -22 35 -12 3 5 -2 12 -11 15 -21 8 -24 8 -24 -3z"/>
</g>
</svg>
